<?xml version="1.0" encoding="utf-8"?>
<!-- Generator: Adobe Illustrator 27.0.0, SVG Export Plug-In . SVG Version: 6.00 Build 0)  -->
<svg version="1.1" id="Layer_1" xmlns="http://www.w3.org/2000/svg" xmlns:xlink="http://www.w3.org/1999/xlink" x="0px" y="0px"
	 viewBox="0 0 800 800" style="enable-background:new 0 0 800 800;" xml:space="preserve">
<style type="text/css">
	.st0{fill:#00243D;stroke:#FFFFFF;stroke-width:6;stroke-miterlimit:10;}
</style>
<path class="st0" d="M714.3,600c0,15.8-12.8,28.6-28.6,28.6H142.9c-15.8,0-28.6-12.8-28.6-28.6s12.8-28.6,28.6-28.6h542.9
	C701.5,571.4,714.3,584.2,714.3,600z"/>
<path class="st0" d="M714.3,400c0,15.8-12.8,28.6-28.6,28.6H371.4c-15.8,0-28.6-12.8-28.6-28.6c0-15.8,12.8-28.6,28.6-28.6h314.3
	C701.5,371.4,714.3,384.2,714.3,400z"/>
<path class="st0" d="M685.7,228.6c15.8,0,28.6-12.8,28.6-28.6s-12.8-28.6-28.6-28.6H200c-15.8,0-28.6,12.8-28.6,28.6
	s12.8,28.6,28.6,28.6H685.7z"/>
</svg>
