<?xml version="1.0" encoding="utf-8"?>
<!-- Generator: Adobe Illustrator 27.0.0, SVG Export Plug-In . SVG Version: 6.00 Build 0)  -->
<svg version="1.1" id="Layer_1" xmlns="http://www.w3.org/2000/svg" xmlns:xlink="http://www.w3.org/1999/xlink" x="0px" y="0px"
	 viewBox="0 0 171 37" style="enable-background:new 0 0 171 37;" xml:space="preserve">
<style type="text/css">
	.st0{clip-path:url(#SVGID_00000070098760733232890760000011466767167684001166_);}
	.st1{fill:#FFFFFF;}
</style>
<g>
	<defs>
		<rect id="SVGID_1_" width="170.6" height="37"/>
	</defs>
	<clipPath id="SVGID_00000106138368382001032910000013521002323964917642_">
		<use xlink:href="#SVGID_1_"  style="overflow:visible;"/>
	</clipPath>
	<g style="clip-path:url(#SVGID_00000106138368382001032910000013521002323964917642_);">
		<path class="st1" d="M43.8,34h1.3c0.2,0,0.3,0,0.3-0.1c0-0.1,0-0.2-0.1-0.4l-0.8-1.8c-0.1-0.1-0.1-0.1-0.1-0.1
			c0,0-0.1,0.1-0.1,0.1l-0.8,1.7c-0.1,0.2-0.1,0.3-0.1,0.4C43.5,34,43.6,34,43.8,34z M45.4,34.5h-1.9c-0.3,0-0.4,0.2-0.6,0.7
			c-0.1,0.4-0.2,0.7-0.2,0.8c0,0.2,0.1,0.4,0.3,0.5c0.1,0,0.2,0.1,0.5,0.2c0.2,0.1,0.3,0.1,0.3,0.2c0,0.1-0.1,0.1-0.2,0.1
			c0.1,0-0.1,0-0.4,0c-0.1,0-0.2,0-0.4,0c-0.2,0-0.4,0-0.5,0c-0.1,0-0.2,0-0.4,0c-0.1,0-0.3,0-0.4,0c-0.2,0-0.3,0-0.3-0.1
			c0-0.1,0.1-0.2,0.3-0.3c0.2-0.1,0.4-0.3,0.4-0.5l2.7-5.9c0.1-0.2,0.2-0.3,0.2-0.3c0,0,0.1,0.1,0.2,0.3l2.6,6
			c0.1,0.2,0.2,0.3,0.4,0.4c0,0,0.2,0.1,0.4,0.1c0.1,0,0.2,0.1,0.2,0.2c0,0.1,0,0.1-0.1,0.1c0,0-0.1,0-0.3,0c-0.1,0-0.3,0-0.5,0
			c-0.3,0-0.5,0-0.7,0c-0.2,0-0.3,0-0.6,0c-0.2,0-0.3,0-0.5,0c-0.2,0-0.3,0-0.3-0.1c0-0.1,0.1-0.2,0.3-0.3c0.2-0.1,0.3-0.3,0.3-0.5
			c0-0.2-0.1-0.4-0.2-0.7c-0.1-0.2-0.2-0.4-0.2-0.5C45.7,34.6,45.6,34.5,45.4,34.5L45.4,34.5z M52.8,34.3v1.8c0,0.2,0,0.3,0.2,0.4
			c0,0,0.1,0.1,0.3,0.1c0.1,0,0.2,0.1,0.2,0.2s0,0.1-0.1,0.1c0,0-0.1,0-0.3,0c-0.2,0-0.3,0-0.5,0c-0.2,0-0.4,0-0.6,0
			c-0.1,0-0.2,0-0.3,0c-0.1,0-0.2,0-0.2-0.1c0,0,0-0.1,0.2-0.2c0.1-0.1,0.2-0.2,0.2-0.4v-1.8c0-0.4,0-0.7-0.2-0.9
			c-0.1-0.1-0.3-0.2-0.5-0.2c-0.2,0-0.4,0.1-0.6,0.2c-0.1,0.1-0.1,0.2-0.1,0.4v2.2c0,0.2,0,0.3,0.1,0.4c0,0,0.1,0,0.3,0.1
			c0.1,0,0.2,0.1,0.2,0.2c0,0.1-0.1,0.1-0.3,0.1c-0.1,0-0.3,0-0.5,0c-0.2,0-0.4,0-0.4,0c-0.1,0-0.2,0-0.4,0c-0.1,0-0.2,0-0.3,0
			c-0.1,0-0.2,0-0.2,0c0,0-0.1-0.1-0.1-0.1c0-0.1,0.1-0.1,0.2-0.2c0.2-0.1,0.2-0.2,0.2-0.3v-2.5c0-0.2-0.1-0.3-0.3-0.3
			c-0.2,0-0.3-0.1-0.3-0.2c0-0.1,0.1-0.1,0.1-0.1c0,0,0.2,0,0.4-0.1c0.3-0.1,0.6-0.2,0.8-0.3c0.2-0.1,0.3-0.2,0.3-0.2
			c0.1,0,0.1,0.1,0.1,0.2v0.5c0.4-0.4,0.8-0.6,1.2-0.6c0.5,0,0.8,0.2,1.2,0.7c0.3-0.5,0.8-0.7,1.3-0.7c0.5,0,0.9,0.2,1.1,0.5
			c0.2,0.3,0.2,0.7,0.2,1.3v1.7c0,0.2,0.1,0.4,0.3,0.4c0.2,0.1,0.3,0.1,0.3,0.2c0,0.1-0.1,0.2-0.3,0.2c-0.1,0-0.2,0-0.3,0
			c-0.2,0-0.2,0-0.3,0c-0.1,0-0.3,0-0.5,0c-0.1,0-0.3,0-0.4,0c-0.1,0-0.2-0.1-0.2-0.1c0-0.1,0.1-0.1,0.2-0.2
			c0.1-0.1,0.2-0.2,0.2-0.3v-1.8c0-0.4,0-0.7-0.1-0.9c-0.1-0.3-0.3-0.4-0.7-0.4C53,33.2,52.8,33.6,52.8,34.3z M57.2,34.2h1.4
			c0.1,0,0.2,0,0.2,0c0,0,0-0.1,0-0.2c0-0.2-0.1-0.4-0.2-0.6C58.5,33.1,58.3,33,58,33c-0.3,0-0.5,0.1-0.6,0.3
			c-0.1,0.2-0.2,0.4-0.2,0.7C57.2,34.1,57.2,34.2,57.2,34.2L57.2,34.2z M59.8,34.5h-2.4c-0.1,0-0.2,0-0.2,0c0,0,0,0.1,0,0.2
			c0,0.4,0.2,0.8,0.4,1.1c0.3,0.3,0.6,0.5,1,0.5c0.2,0,0.5-0.1,0.7-0.3c0.3-0.2,0.4-0.3,0.4-0.3c0.1,0,0.1,0,0.1,0.1
			c0,0.2-0.2,0.4-0.5,0.6C59,36.9,58.6,37,58.1,37c-0.5,0-1-0.2-1.3-0.5c-0.4-0.4-0.6-0.9-0.6-1.5c0-0.6,0.2-1.2,0.5-1.6
			c0.3-0.5,0.8-0.8,1.4-0.8c0.6,0,1,0.2,1.4,0.6c0.3,0.3,0.4,0.7,0.4,1C59.9,34.5,59.9,34.5,59.8,34.5L59.8,34.5z M61.9,34.6v1.3
			c0,0.3,0.1,0.5,0.2,0.6c0.1,0.1,0.2,0.1,0.4,0.2c0.1,0.1,0.2,0.1,0.2,0.2c0,0.1,0,0.2-0.2,0.2c-0.1,0-0.2,0-0.5,0
			c-0.3,0-0.5,0-0.6,0c-0.2,0-0.4,0-0.6,0c-0.1,0-0.3,0-0.4,0c-0.1,0-0.2,0-0.2-0.1c0-0.1,0-0.2,0.1-0.2c0.1-0.1,0.2-0.1,0.2-0.1
			c0.1-0.1,0.1-0.3,0.1-0.5v-2.3c0-0.2-0.1-0.3-0.3-0.3c-0.2,0-0.3-0.1-0.3-0.2c0-0.1,0-0.1,0.1-0.1c0.1,0,0.2,0,0.4-0.1
			c0.3-0.1,0.6-0.2,0.8-0.3c0.2-0.1,0.3-0.2,0.3-0.2c0.1,0,0.1,0.1,0.1,0.2v0.8c0.5-0.6,0.8-0.9,1-0.9c0.1,0,0.3,0.1,0.5,0.3
			c0.2,0.2,0.3,0.3,0.3,0.4c0,0.2-0.1,0.4-0.2,0.5c-0.1,0.2-0.2,0.3-0.3,0.3c0,0-0.1-0.1-0.3-0.2c-0.1-0.1-0.3-0.2-0.5-0.2
			C62.1,33.7,61.9,34,61.9,34.6z M65.7,31.1c0,0.1-0.1,0.2-0.3,0.4c-0.2,0.2-0.3,0.3-0.4,0.3c-0.1,0-0.2-0.1-0.4-0.3
			c-0.2-0.2-0.3-0.3-0.3-0.4c0-0.1,0.1-0.2,0.3-0.5c0.2-0.2,0.3-0.3,0.4-0.3c0.1,0,0.2,0.1,0.4,0.3C65.6,30.9,65.7,31,65.7,31.1z
			 M64.5,36.3v-2.5c0-0.2-0.1-0.3-0.3-0.3c-0.2,0-0.3-0.1-0.3-0.1c0-0.1,0.1-0.1,0.1-0.2c0,0,0.2,0,0.4-0.1c0.3-0.1,0.6-0.2,0.8-0.3
			c0.2-0.1,0.3-0.2,0.3-0.2c0.1,0,0.1,0.1,0.1,0.2v3.3c0,0.2,0.1,0.3,0.2,0.4c0,0,0.1,0,0.3,0.1c0.1,0,0.2,0.1,0.2,0.2
			c0,0.1-0.2,0.1-0.4,0.1c-0.2,0-0.3,0-0.5,0c-0.2,0-0.4,0-0.5,0c-0.1,0-0.2,0-0.4,0c-0.1,0-0.2,0-0.4,0c-0.1,0-0.2,0-0.2,0
			c0,0-0.1-0.1-0.1-0.1c0-0.1,0.1-0.1,0.3-0.2C64.4,36.5,64.5,36.4,64.5,36.3z M66.4,35.1c0-0.7,0.2-1.2,0.7-1.7
			c0.4-0.5,1-0.7,1.7-0.7c0.2,0,0.5,0.1,0.8,0.2c0.3,0.1,0.5,0.3,0.5,0.6c0,0.1-0.1,0.2-0.3,0.4c-0.2,0.2-0.3,0.2-0.4,0.2
			c-0.1,0-0.1,0-0.1-0.1c-0.1-0.3-0.2-0.5-0.3-0.6c-0.1-0.2-0.3-0.2-0.6-0.2c-0.6,0-0.9,0.4-0.9,1.3c0,0.5,0.1,1,0.4,1.4
			c0.3,0.4,0.6,0.7,1.1,0.7c0.2,0,0.5-0.1,0.8-0.3c0.3-0.2,0.4-0.3,0.5-0.3c0.1,0,0.1,0,0.1,0.1c0,0.2-0.2,0.4-0.5,0.6
			c-0.4,0.3-0.8,0.4-1.3,0.4c-0.5,0-1-0.2-1.4-0.6C66.6,36.1,66.4,35.6,66.4,35.1z M72.8,36.1v-1.2c0,0,0-0.1-0.1-0.1
			c-0.2,0-0.5,0.1-0.7,0.2c-0.3,0.2-0.4,0.5-0.4,0.7c0,0.4,0.2,0.7,0.5,0.7c0.2,0,0.3,0,0.4-0.1C72.8,36.3,72.8,36.2,72.8,36.1
			L72.8,36.1z M73.9,34.1v1.7c0,0.3,0,0.4,0,0.5c0,0.1,0.1,0.1,0.2,0.1c0.1,0,0.1,0,0.2,0c0.1,0,0.1,0,0.2,0c0.1,0,0.1,0,0.1,0.1
			c0,0.1-0.1,0.2-0.3,0.3C74,36.9,73.8,37,73.6,37c-0.3,0-0.5-0.2-0.6-0.6c-0.5,0.4-1,0.6-1.5,0.6c-0.3,0-0.5-0.1-0.7-0.3
			c-0.2-0.2-0.3-0.4-0.3-0.6c0-0.5,0.3-0.9,0.8-1.2c0.2-0.1,0.7-0.3,1.5-0.5c0-0.5,0-0.8-0.1-1C72.6,33.1,72.4,33,72,33
			c-0.2,0-0.3,0.1-0.4,0.2c0,0.1-0.1,0.2-0.1,0.4c0,0.3-0.2,0.5-0.7,0.5c-0.2,0-0.2-0.1-0.2-0.2c0-0.4,0.2-0.7,0.6-0.9
			c0.4-0.2,0.7-0.3,1.1-0.3C73.4,32.7,73.9,33.2,73.9,34.1L73.9,34.1z M75.3,36v-2.2c0-0.2-0.1-0.3-0.3-0.3c-0.2,0-0.3-0.1-0.3-0.2
			c0-0.1,0-0.1,0.1-0.1c0,0,0.2,0,0.4-0.1c0.3-0.1,0.6-0.2,0.8-0.3c0.1-0.1,0.2-0.1,0.3-0.2c0.1,0,0.1,0.1,0.1,0.2v0.6h0
			c0.3-0.5,0.7-0.7,1.3-0.7c0.5,0,0.9,0.2,1.2,0.6c0.2,0.3,0.3,0.8,0.3,1.3v1.6c0,0.2,0.1,0.3,0.2,0.4c0,0,0.1,0.1,0.3,0.1
			c0.1,0,0.2,0.1,0.2,0.1c0,0.1-0.1,0.1-0.2,0.1c-0.1,0-0.3,0-0.5,0c-0.2,0-0.3,0-0.4,0c-0.1,0-0.3,0-0.4,0c-0.2,0-0.3,0-0.3,0h-0.2
			c-0.1,0-0.1-0.1-0.1-0.1c0,0,0.1-0.1,0.2-0.2c0.2-0.1,0.2-0.2,0.2-0.4v-1.7c0-0.8-0.3-1.2-1-1.2c-0.5,0-0.8,0.3-0.8,0.9v1.8
			c0,0.2,0.1,0.3,0.2,0.4c0.1,0,0.2,0.1,0.4,0.2c0.1,0,0.2,0.1,0.2,0.2c0,0.1-0.1,0.1-0.3,0.1c-0.3,0-0.6,0-1-0.1
			c-0.1,0-0.3,0-0.5,0c-0.2,0-0.3,0-0.5,0c-0.1,0-0.1,0-0.1-0.1c0-0.1,0.1-0.2,0.2-0.2c0.1-0.1,0.2-0.1,0.2-0.1
			C75.2,36.4,75.3,36.2,75.3,36z M87.4,30.6v1.6c0,0.1-0.1,0.2-0.2,0.2c0,0-0.1-0.2-0.3-0.6c-0.1-0.4-0.4-0.7-0.7-1
			c-0.5-0.4-1.1-0.6-1.8-0.6c-0.6,0-1.1,0.2-1.4,0.6c-0.5,0.5-0.8,1.3-0.8,2.5c0,0.8,0.2,1.4,0.5,2.1c0.4,0.7,1,1,1.7,1
			c0.8,0,1.3-0.2,1.6-0.5c0.2-0.2,0.2-0.5,0.2-0.9c0-0.4-0.1-0.8-0.3-0.9c-0.1-0.1-0.3-0.2-0.5-0.2C85.1,34,85,34,85,33.9
			c0-0.1,0.1-0.2,0.2-0.2h0.3c0.1,0,0.4,0,0.7,0c0.3,0,0.5,0,0.7,0c0.1,0,0.3,0,0.5,0c0.2,0,0.4,0,0.5,0c0.1,0,0.1,0,0.1,0.1
			c0,0.1-0.1,0.2-0.2,0.2c-0.1,0-0.2,0.1-0.3,0.2c-0.1,0.1-0.2,0.4-0.2,0.8c0,0.2,0,0.3,0,0.5v0.3c0,0.2,0,0.2-0.1,0.3
			c-1.2,0.6-2.2,1-3.1,1c-1.2,0-2.1-0.5-2.7-1.3c-0.4-0.6-0.6-1.2-0.6-1.9c0-1,0.3-1.8,0.8-2.5c0.7-0.9,1.5-1.3,2.7-1.3
			c0.4,0,0.8,0,1.2,0.2c0.2,0.1,0.5,0.2,0.8,0.3c0.3,0.1,0.4,0.2,0.5,0.2c0.1,0,0.1,0,0.2-0.2c0.1-0.1,0.1-0.1,0.2-0.1
			C87.3,30.3,87.4,30.4,87.4,30.6z M90,34.6v1.3c0,0.3,0.1,0.5,0.2,0.6c0.1,0.1,0.2,0.1,0.4,0.2c0.1,0.1,0.2,0.1,0.2,0.2
			c0,0.1-0.1,0.2-0.1,0.2c-0.1,0-0.2,0-0.5,0c-0.3,0-0.5,0-0.6,0c-0.2,0-0.4,0-0.6,0c-0.1,0-0.3,0-0.4,0c-0.1,0-0.2,0-0.2-0.1
			c0-0.1,0.1-0.2,0.1-0.2c0.1-0.1,0.2-0.1,0.2-0.1c0.1-0.1,0.1-0.3,0.1-0.5v-2.3c0-0.2-0.1-0.3-0.3-0.3c-0.2,0-0.3-0.1-0.3-0.2
			c0-0.1,0-0.1,0.1-0.1c0,0,0.2,0,0.4-0.1c0.3-0.1,0.6-0.2,0.8-0.3c0.2-0.1,0.3-0.2,0.3-0.2c0.1,0,0.1,0.1,0.1,0.2v0.8
			c0.5-0.6,0.8-0.9,1-0.9c0.1,0,0.3,0.1,0.5,0.3c0.2,0.2,0.3,0.3,0.3,0.4c0,0.2-0.1,0.4-0.2,0.5c-0.1,0.2-0.2,0.3-0.3,0.3
			c0,0-0.1-0.1-0.3-0.2c-0.1-0.1-0.3-0.2-0.5-0.2C90.2,33.7,90,34,90,34.6L90,34.6z M93.7,31.1c0,0.1-0.1,0.2-0.3,0.4
			c-0.2,0.2-0.3,0.3-0.4,0.3c-0.1,0-0.2-0.1-0.4-0.3c-0.2-0.2-0.3-0.3-0.3-0.4c0-0.1,0.1-0.2,0.3-0.5c0.2-0.2,0.3-0.3,0.4-0.3
			c0.1,0,0.2,0.1,0.4,0.3C93.6,30.9,93.7,31,93.7,31.1L93.7,31.1z M92.5,36.3v-2.5c0-0.2-0.1-0.3-0.3-0.3c-0.2,0-0.3-0.1-0.3-0.1
			c0-0.1,0-0.1,0.1-0.2c0,0,0.2,0,0.4-0.1c0.3-0.1,0.6-0.2,0.8-0.3c0.2-0.1,0.3-0.2,0.3-0.2c0.1,0,0.1,0.1,0.1,0.2v3.3
			c0,0.2,0,0.3,0.2,0.4c0,0,0.1,0,0.3,0.1c0.1,0,0.2,0.1,0.2,0.2c0,0.1-0.1,0.1-0.4,0.1c-0.1,0-0.3,0-0.5,0c-0.2,0-0.4,0-0.5,0
			s-0.2,0-0.4,0c-0.1,0-0.2,0-0.4,0c-0.1,0-0.2,0-0.2,0c-0.1,0-0.1-0.1-0.1-0.1c0-0.1,0.1-0.1,0.3-0.2
			C92.4,36.5,92.5,36.4,92.5,36.3L92.5,36.3z M95,36v-5.1c0-0.2-0.1-0.3-0.2-0.3c-0.1,0-0.2,0-0.3-0.1c-0.1,0-0.2,0-0.2-0.1
			c0-0.1,0-0.1,0.1-0.1c0.2-0.1,0.4-0.1,0.6-0.2c0.2-0.1,0.4-0.2,0.7-0.3c0.1-0.1,0.2-0.1,0.2-0.1c0.1,0,0.1,0,0.1,0.1
			c0,0,0,0.1,0,0.3v6.1c0,0.2,0,0.3,0.2,0.5c0,0,0.2,0.1,0.3,0.2c0.1,0,0.2,0.1,0.2,0.1c0,0.1-0.1,0.1-0.2,0.1c-0.1,0-0.3,0-0.5,0
			c-0.3,0-0.5,0-0.6,0c-0.1,0-0.2,0-0.5,0c-0.1,0-0.3,0-0.4,0c-0.1,0-0.2,0-0.2-0.1c0-0.1,0-0.1,0.1-0.2c0.1,0,0.2-0.1,0.3-0.1
			C95,36.5,95,36.3,95,36z M97.5,36v-5.1c0-0.2,0-0.3-0.2-0.3c0,0-0.1,0-0.3-0.1c-0.1,0-0.2,0-0.2-0.1c0-0.1,0-0.1,0.1-0.1
			c0.2-0.1,0.4-0.1,0.6-0.2c0.3-0.1,0.5-0.2,0.7-0.3c0.1-0.1,0.2-0.1,0.2-0.1c0,0,0.1,0,0.1,0.1V30c0,0.2,0,0.3,0,0.4v5.6
			c0,0.2,0.1,0.3,0.2,0.5c0.1,0,0.2,0.1,0.3,0.2c0.1,0,0.2,0.1,0.2,0.1c0,0.1-0.1,0.1-0.2,0.1c-0.1,0-0.2,0-0.5,0
			c-0.3,0-0.5,0-0.6,0c-0.1,0-0.2,0-0.4,0c-0.1,0-0.3,0-0.4,0c-0.1,0-0.2,0-0.2-0.1c0-0.1,0.1-0.1,0.2-0.2c0.1,0,0.2-0.1,0.3-0.1
			C97.5,36.5,97.5,36.3,97.5,36z M104.7,36.4c0.2,0,0.5,0,0.8-0.1c0.3-0.1,0.4-0.2,0.4-0.3c0,0-0.2-0.2-0.6-0.6
			c-0.5-0.3-0.9-0.7-1.3-1.1c-0.5-0.5-0.9-1-1.2-1.4c-0.1-0.2-0.2-0.3-0.3-0.3c-0.1,0-0.3,0.1-0.4,0.2c-0.2,0.2-0.3,0.5-0.3,0.8
			c0,0.6,0.3,1.2,0.9,1.7C103.3,36.1,104,36.4,104.7,36.4z M100.9,34.6c0-0.5,0.1-1,0.4-1.3c0.2-0.3,0.4-0.5,0.7-0.7l0.4-0.2
			c0,0,0-0.2-0.1-0.3c-0.1-0.2-0.1-0.4-0.1-0.6c0-0.5,0.2-0.8,0.5-1.1c0.3-0.3,0.7-0.4,1.2-0.4c0.2,0,0.5,0,0.9,0.2
			c0.2,0.1,0.4,0.1,0.5,0.2c0,0,0.1,0,0.1-0.1c0.1,0,0.1,0,0.2,0c0.1,0,0.1,0,0.1,0.2c0,0.2,0.1,0.7,0.1,1.5c0,0.1,0,0.2-0.1,0.2
			c-0.1,0-0.1-0.1-0.2-0.3c-0.1-0.4-0.3-0.8-0.6-1c-0.3-0.3-0.6-0.5-1-0.5c-0.5,0-0.7,0.3-0.7,0.7c0,0.4,0.3,1,0.9,1.7
			c0.5,0.6,1,1.2,1.6,1.7c0.6,0.5,0.9,0.8,1,0.8c0,0,0.1-0.1,0.2-0.3c0.1-0.2,0.2-0.5,0.2-0.7c0-0.4-0.1-0.6-0.3-0.8
			c-0.1-0.1-0.3-0.1-0.5-0.2c-0.2,0-0.3-0.1-0.3-0.2c0-0.1,0.1-0.1,0.2-0.1c0,0,0.1,0,0.3,0c0.2,0,0.4,0,0.7,0c0.2,0,0.4,0,0.5,0
			c0.2,0,0.3,0,0.3,0c0.1,0,0.2,0,0.2,0.1c0,0.1-0.1,0.1-0.2,0.2c-0.1,0-0.2,0.1-0.2,0.3c-0.1,0.4-0.2,0.8-0.3,1.1
			c-0.1,0.2-0.1,0.4-0.2,0.6l-0.1,0.2c0,0.2,0.2,0.4,0.6,0.6c0.3,0.2,0.6,0.3,0.8,0.3c0.1,0,0.3,0,0.3-0.1c0.1,0,0.1,0,0.2,0
			c0.1,0,0.1,0,0.1,0.1c0,0.1-0.1,0.2-0.3,0.4c-0.3,0.2-0.6,0.3-0.9,0.3c-0.4,0-1-0.3-1.6-0.8c-0.3,0.3-0.7,0.4-1.1,0.6
			c-0.4,0.1-0.8,0.2-1.3,0.2c-1,0-1.8-0.3-2.3-0.9C101.1,35.7,100.9,35.2,100.9,34.6L100.9,34.6z M110.8,36.2l-0.3-1.3
			c0-0.1,0-0.2,0-0.3c0-0.1,0.1-0.2,0.2-0.2c0.1,0,0.2,0.1,0.2,0.2c0.4,1.2,1.1,1.8,2,1.8c0.4,0,0.7-0.1,1-0.3
			c0.2-0.2,0.4-0.5,0.4-0.9c0-0.4-0.2-0.6-0.5-0.9c-0.1,0-0.6-0.3-1.7-0.8c-0.5-0.2-0.8-0.4-1-0.6c-0.3-0.3-0.4-0.7-0.4-1.1
			c0-0.6,0.2-1,0.5-1.4c0.4-0.4,0.8-0.6,1.4-0.6c0.3,0,0.6,0,0.9,0.2c0.3,0.1,0.5,0.2,0.6,0.2c0,0,0.1,0,0.2-0.1
			c0.1,0,0.2-0.1,0.2-0.1c0.1,0,0.1,0,0.1,0.1c0,0.1,0,0.2,0,0.3l0.1,1.3c0,0.2,0,0.3-0.2,0.3c0,0-0.1-0.2-0.2-0.5
			c-0.2-0.4-0.3-0.7-0.6-0.9c-0.3-0.3-0.7-0.5-1.2-0.5c-0.3,0-0.6,0.1-0.8,0.3c-0.2,0.2-0.3,0.4-0.3,0.8c0,0.3,0.1,0.5,0.4,0.7
			c0.1,0.1,0.6,0.3,1.4,0.7c0.6,0.3,1,0.5,1.3,0.8c0.3,0.3,0.4,0.8,0.4,1.4c0,0.6-0.2,1.2-0.6,1.5c-0.4,0.4-0.9,0.6-1.6,0.6
			c-0.3,0-0.5,0-0.9-0.1c-0.3-0.1-0.5-0.2-0.8-0.2c-0.1,0-0.2-0.1-0.2-0.1C110.8,36.4,110.8,36.3,110.8,36.2z M117.7,36.1v-1.2
			c0,0,0-0.1-0.1-0.1c-0.2,0-0.5,0.1-0.7,0.2c-0.3,0.2-0.4,0.5-0.4,0.7c0,0.4,0.2,0.7,0.5,0.7c0.1,0,0.3,0,0.4-0.1
			C117.6,36.3,117.7,36.2,117.7,36.1z M118.7,34.1v1.7c0,0.3,0,0.4,0,0.5c0,0.1,0.1,0.1,0.2,0.1c0,0,0.1,0,0.2,0c0.1,0,0.1,0,0.1,0
			c0.1,0,0.1,0,0.1,0.1c0,0.1-0.1,0.2-0.3,0.3c-0.2,0.1-0.4,0.2-0.6,0.2c-0.3,0-0.6-0.2-0.6-0.6c-0.5,0.4-1,0.6-1.5,0.6
			c-0.3,0-0.5-0.1-0.7-0.3c-0.2-0.2-0.3-0.4-0.3-0.6c0-0.5,0.3-0.9,0.8-1.2c0.2-0.1,0.7-0.3,1.5-0.5c0-0.5,0-0.8-0.1-1
			c-0.1-0.3-0.4-0.4-0.7-0.4c-0.2,0-0.3,0.1-0.4,0.2c-0.1,0.1-0.1,0.2-0.1,0.4c0,0.3-0.2,0.5-0.7,0.5c-0.2,0-0.2-0.1-0.2-0.2
			c0-0.4,0.2-0.7,0.6-0.9c0.4-0.2,0.8-0.3,1.2-0.3C118.3,32.7,118.7,33.2,118.7,34.1L118.7,34.1z M120.1,36v-5.1
			c0-0.2-0.1-0.3-0.2-0.3c0,0-0.1,0-0.3-0.1c-0.1,0-0.2,0-0.2-0.1c0-0.1,0-0.1,0.2-0.1c0.2-0.1,0.4-0.1,0.6-0.2
			c0.3-0.1,0.5-0.2,0.7-0.3c0.1-0.1,0.2-0.1,0.2-0.1c0,0,0.1,0,0.1,0.1V30c0,0.2,0,0.3,0,0.4v5.6c0,0.2,0,0.3,0.2,0.5
			c0.1,0,0.2,0.1,0.3,0.2c0.1,0,0.2,0.1,0.2,0.1c0,0.1-0.1,0.1-0.2,0.1c-0.1,0-0.3,0-0.5,0c-0.3,0-0.5,0-0.6,0c-0.1,0-0.2,0-0.4,0
			c-0.1,0-0.3,0-0.4,0c-0.1,0-0.2,0-0.2-0.1c0-0.1,0-0.1,0.1-0.2c0.1,0,0.2-0.1,0.3-0.1C120.1,36.5,120.1,36.3,120.1,36z
			 M124.4,36.1v-1.2c0,0,0-0.1-0.1-0.1c-0.2,0-0.5,0.1-0.7,0.2c-0.3,0.2-0.4,0.5-0.4,0.7c0,0.4,0.2,0.7,0.5,0.7c0.2,0,0.3,0,0.4-0.1
			C124.3,36.3,124.4,36.2,124.4,36.1z M125.4,34.1v1.7c0,0.3,0,0.4,0,0.5c0,0.1,0.1,0.1,0.2,0.1c0.1,0,0.1,0,0.2,0
			c0.1,0,0.1,0,0.2,0c0.1,0,0.1,0,0.1,0.1c0,0.1-0.1,0.2-0.3,0.3c-0.2,0.1-0.4,0.2-0.6,0.2c-0.3,0-0.5-0.2-0.6-0.6
			c-0.5,0.4-1,0.6-1.5,0.6c-0.2,0-0.5-0.1-0.7-0.3c-0.2-0.2-0.3-0.4-0.3-0.6c0-0.5,0.3-0.9,0.8-1.2c0.2-0.1,0.7-0.3,1.6-0.5
			c0-0.5,0-0.8-0.1-1c-0.1-0.3-0.4-0.4-0.7-0.4c-0.2,0-0.4,0.1-0.4,0.2c0,0.1,0,0.2,0,0.4c0,0.3-0.3,0.5-0.7,0.5
			c-0.2,0-0.2-0.1-0.2-0.2c0-0.4,0.2-0.7,0.6-0.9c0.4-0.2,0.8-0.3,1.2-0.3C124.9,32.7,125.4,33.2,125.4,34.1L125.4,34.1z
			 M129.1,35.7v-2c-0.3-0.4-0.6-0.6-1.1-0.6c-0.3,0-0.6,0.2-0.8,0.5c-0.1,0.3-0.2,0.6-0.2,1c0,0.4,0.1,0.8,0.3,1.1
			c0.2,0.4,0.5,0.7,0.9,0.7c0.3,0,0.5-0.1,0.7-0.2C129,36,129.1,35.9,129.1,35.7z M129.1,32.9v-2c0-0.2-0.1-0.3-0.2-0.4
			c-0.1,0-0.2-0.1-0.3-0.1c-0.1,0-0.2-0.1-0.2-0.2c0-0.1,0.1-0.2,0.4-0.2c0.4-0.1,0.8-0.2,1.1-0.4c0,0,0.1-0.1,0.2-0.1
			c0.1,0,0.1,0.1,0.1,0.3v5.9c0,0.2,0.1,0.4,0.2,0.5c0.1,0.1,0.2,0.1,0.3,0.1c0.1,0,0.1,0,0.1,0.1c0,0.1-0.1,0.1-0.4,0.2
			c-0.4,0.1-0.7,0.2-0.8,0.2c-0.2,0.1-0.4,0.1-0.4,0.1c-0.1,0-0.1,0-0.1-0.1c0-0.2,0-0.3,0-0.5c-0.4,0.4-0.9,0.6-1.4,0.6
			c-0.5,0-0.9-0.2-1.2-0.6c-0.2-0.3-0.4-0.8-0.4-1.3c0-0.2,0-0.4,0.1-0.6c0.1-0.5,0.3-0.9,0.7-1.2c0.4-0.4,0.8-0.6,1.3-0.6
			C128.6,32.7,128.9,32.8,129.1,32.9z M32.8,7.9l-1.5,6.2c0.8,1.1,1.5,2.5,2,4.3c0.4-0.9,0.9-1.8,1.5-2.8L32.8,7.9z M35.6,18.4
			c-0.3,0.5-0.8,1.5-1.4,3c-0.2,0.5-0.5,0.8-1,0.8c-0.5,0-0.8-0.3-1-1c-0.4-1.6-0.9-3-1.7-4.3c-0.4,1.7-1,3.3-1.7,4.9
			c-0.8,1.8-1.7,3.3-2.7,4.5c-1,1.2-2.4,1.8-3.9,1.8c-1,0-1.9-0.3-2.5-1c-0.8-0.8-1.2-1.8-1.2-3c0-1,0.3-2,0.9-2.7
			c0.6-0.7,1.3-1.1,2.2-1.1c0.3,0,0.5,0,0.6,0.1c0.1,0.1,0.2,0.3,0.3,0.6c0.2,0.7,0.6,1,1.2,1c0.6,0,1.3-0.4,2-1.1
			c0.5-0.5,0.9-1.2,1.2-2c0.4-0.8,0.9-2.2,1.5-4.1c-0.4-0.3-0.9-0.4-1.2-0.4c-0.6,0-1.2,0.5-1.2,1.1c0,0,0,0,0,0.1
			c0,0.2,0,0.4,0.1,0.8c0,0.1,0,0.1,0,0.2c0,0.4-0.4,0.7-1,0.7c-0.6,0-1.1-0.3-1.5-0.8c-0.4-0.5-0.6-1.1-0.6-1.8
			c0-1.1,0.4-2,1.2-2.7c0.6-0.6,1.4-0.9,2.2-0.9c0.9,0,1.8,0.3,2.7,1l1-4c0.3-1,0.4-1.8,0.4-2.4c0-0.5-0.1-1-0.3-1.3
			c-0.2-0.4-0.5-0.8-1-1.3c-0.5-0.5-0.7-0.9-0.7-1.2c0-0.3,0.1-0.5,0.3-0.7c0.2-0.2,0.4-0.3,0.7-0.3c0.2,0,0.5,0.1,1,0.3
			C32,1.4,33.1,1.7,34,1.7c0.8,0,1.9-0.3,3.2-0.8c0.5-0.2,0.9-0.3,1.1-0.3c0.6,0,0.9,0.3,0.9,0.9c0,0.3-0.2,0.7-0.7,1.1
			c-0.8,0.8-1.2,1.6-1.2,2.5c0,0.4,0.1,0.9,0.3,1.7l4,15.1c0.3,1,0.6,1.8,0.9,2.3c0.3,0.5,0.8,0.9,1.4,1.3c0.4,0.2,0.6,0.4,0.7,0.5
			c0.1,0.1,0.1,0.3,0.1,0.5c0,0.6-0.5,0.9-1.4,0.9h-6.7c-0.7,0-1.1-0.2-1.1-0.8c0-0.3,0.2-0.6,0.6-0.9c0.6-0.4,0.9-0.8,0.9-1.4
			c0-0.3-0.1-0.8-0.2-1.5L35.6,18.4L35.6,18.4z M54.7,0c1.1,0,2.5,0.4,4.3,1.1c1.1,0.5,1.8,0.7,2.3,0.7c0.2,0,0.5-0.1,1-0.2
			c0.1,0,0.2,0,0.3,0c0.2,0,0.4,0.1,0.6,0.3c0.2,0.2,0.3,0.4,0.3,0.7c0,0.4-0.3,0.9-1,1.5c-1.1,1-2,2.2-2.6,3.6
			c-0.3,0.7-0.7,1-1.1,1c-0.4,0-0.7-0.3-0.9-0.9c-0.7-1.9-1.8-2.9-3.2-2.9c-0.7,0-1.3,0.2-1.8,0.7c-0.5,0.5-0.7,1.1-0.7,1.8
			c0,0.8,0.3,1.4,0.9,1.8c0.6,0.4,2,1,4.1,1.7c1.9,0.7,3.3,1.4,4.3,2.1c2,1.6,3.1,3.8,3.1,6.6c0,2.5-0.9,4.5-2.7,6.2
			c-1.8,1.6-4.1,2.4-7,2.4c-2.7,0-4.9-0.6-6.8-1.9c-0.8-0.6-1.6-1.4-2-2.3C45.5,23,45.2,22,45.2,21c0-1.4,0.4-2.5,1.2-3.4
			c0.9-1,2-1.5,3.3-1.5c1.4,0,2.7,0.6,3.8,1.7c0.3,0.3,0.6,0.7,0.8,1.2c0.2,0.5,0.3,0.9,0.3,1.2c0,0.2-0.1,0.4-0.2,0.6
			c-0.1,0.1-0.2,0.2-0.4,0.2c-0.2,0-0.4-0.1-0.7-0.4c-0.7-0.6-1.3-0.9-1.8-0.9c-0.5,0-0.9,0.2-1.3,0.6c-0.3,0.3-0.5,0.8-0.5,1.4
			c0,0.8,0.3,1.6,1,2.2c0.9,0.9,2.1,1.4,3.5,1.4c1.5,0,2.7-0.5,3.7-1.6c0.8-0.9,1.3-2,1.3-3.2c0-1.6-0.7-2.8-2.1-3.7
			c-0.8-0.5-2.2-1-4.1-1.6c-1.3-0.4-2.3-0.8-2.9-1.1c-0.6-0.3-1.2-0.8-1.7-1.4c-1.2-1.2-1.7-2.7-1.7-4.7c0-2.2,0.8-4.1,2.3-5.6
			C50.6,0.8,52.5,0,54.7,0z M74.7,15.8v5.5c0,1.7,0.1,2.7,0.3,3.2c0.2,0.5,0.7,0.9,1.5,1.3c0.5,0.2,0.7,0.5,0.7,0.8
			c0,0.5-0.3,0.8-1,0.8h-7.8c-0.7,0-1-0.3-1-0.8c0-0.2,0.1-0.4,0.2-0.5c0.1-0.1,0.4-0.3,0.8-0.5c0.7-0.3,1.1-0.7,1.2-1.2
			c0.2-0.5,0.3-1.6,0.3-3.2V9.1c0-2.4-0.1-3.9-0.3-4.6c-0.2-0.7-0.7-1.4-1.5-2c-0.5-0.4-0.8-0.8-0.8-1.1c0-0.2,0.1-0.4,0.2-0.5
			c0.1-0.1,0.3-0.2,0.4-0.2c0.1,0,0.4,0.1,0.8,0.2c1.3,0.5,2.4,0.8,3.5,0.8c1.2,0,2.4-0.3,3.6-0.9c0.2-0.1,0.3-0.1,0.5-0.1
			c0.2,0,0.4,0.1,0.6,0.2C77,0.9,77,1.1,77,1.3c0,0.3-0.3,0.7-0.8,1.2c-0.7,0.5-1.1,1.1-1.3,1.8c-0.2,0.6-0.3,2.2-0.3,4.8v4.3
			l6.9-2.6V9.1c0-2.4-0.1-3.9-0.3-4.6c-0.2-0.7-0.7-1.4-1.5-2C79.3,2.1,79,1.7,79,1.4c0-0.2,0.1-0.4,0.2-0.5
			c0.1-0.1,0.3-0.2,0.4-0.2c0.1,0,0.4,0.1,0.8,0.2c1.3,0.5,2.4,0.8,3.5,0.8c1.2,0,2.4-0.3,3.6-0.9c0.2-0.1,0.4-0.1,0.5-0.1
			c0.2,0,0.4,0.1,0.5,0.2c0.1,0.2,0.2,0.4,0.2,0.6c0,0.3-0.3,0.7-0.8,1.2c-0.7,0.5-1.1,1.1-1.3,1.8c-0.1,0.6-0.2,2.2-0.2,4.8v12.2
			c0,1.7,0.1,2.7,0.3,3.2c0.2,0.5,0.7,0.9,1.5,1.3c0.4,0.2,0.7,0.5,0.7,0.8c0,0.5-0.3,0.8-1,0.8h-7.8c-0.7,0-1-0.3-1-0.8
			c0-0.2,0-0.4,0.2-0.5c0.1-0.1,0.4-0.3,0.8-0.5c0.7-0.3,1-0.7,1.2-1.2c0.2-0.5,0.3-1.6,0.3-3.2v-8.1L74.7,15.8L74.7,15.8z
			 M118.5,12.7c1.2,0,2-0.9,2.3-2.5c0.2-0.7,0.3-1.1,0.4-1.3c0.1-0.2,0.3-0.3,0.6-0.3c0.4,0,0.6,0.5,0.7,1.5c0,1.4,0.1,2.5,0.3,3.3
			c0.2,0.8,0.6,2.1,1.3,3.9c0.1,0.3,0.2,0.5,0.2,0.7c0,0.5-0.2,0.8-0.7,0.8c-0.3,0-0.5-0.2-0.8-0.6c-0.6-0.9-1-1.5-1.3-1.8
			c-0.3-0.3-0.6-0.6-1-0.8c-0.5-0.3-1.2-0.5-2-0.5v3.3c0,1.7,0.2,2.9,0.7,3.8c0.6,1.2,1.8,1.8,3.6,1.8c2.4,0,4-1.4,4.7-4.1
			c0.1-0.6,0.3-1,0.4-1.2c0.1-0.2,0.3-0.3,0.5-0.3c0.2,0,0.4,0.1,0.5,0.4c0.1,0.2,0.2,0.7,0.3,1.5c0.3,2.2,1,4,2.1,5.4
			c0.5,0.6,0.8,1.1,0.8,1.4c0,0.2-0.1,0.4-0.2,0.6c-0.1,0.2-0.3,0.3-0.5,0.3c-0.1,0-0.2,0-0.4-0.1c-0.6-0.2-1.3-0.3-2-0.3h-16.8
			c-0.7,0-1-0.3-1-0.8c0-0.2,0.1-0.4,0.2-0.5c0.1-0.1,0.4-0.3,0.8-0.5c0.7-0.3,1.1-0.8,1.3-1.3c0.1-0.5,0.2-1.8,0.2-3.8V9.5
			c0-1.2-0.1-2-0.3-2.4c-0.2-0.5-0.7-0.8-1.4-1c-0.4-0.1-0.6-0.4-0.6-0.7c0-0.8,0.8-1.8,2.5-3.1c0.9-0.7,2-1.2,3.2-1.6
			c1.2-0.4,2.4-0.6,3.7-0.6c1.1,0,2,0.1,2.7,0.3c0.8,0.2,1.9,0.7,3.4,1.5c0.7,0.3,1.2,0.5,1.7,0.5c0.4,0,0.8-0.2,1.2-0.4
			c0.2-0.1,0.4-0.2,0.5-0.2c0.3,0,0.5,0.3,0.7,0.9c0.2,0.6,0.3,1.3,0.3,2c0,1.6-0.5,2.9-1.6,3.9c-0.9,0.9-2,1.3-3.2,1.3
			c-1,0-1.9-0.4-2.5-1c-0.4-0.4-0.7-1-0.7-1.6c0-0.4,0.1-0.6,0.4-0.6c0.1,0,0.2,0,0.4,0.1c0.1,0,0.2,0.1,0.4,0.1
			c0.3,0,0.6-0.1,0.8-0.4c0.2-0.3,0.3-0.6,0.3-1c0-0.7-0.3-1.3-0.9-1.7c-0.6-0.5-1.3-0.7-2.1-0.7c-0.8,0-1.5,0.2-2.2,0.8
			c-0.6,0.5-1.1,1.2-1.4,2c-0.3,1.1-0.5,2.8-0.5,5.1L118.5,12.7L118.5,12.7z M107.5,27.4H92.7c-0.7,0-1-0.3-1-0.8
			c0-0.2,0-0.4,0.2-0.5c0.1-0.1,0.4-0.3,0.8-0.5c0.6-0.3,1.1-0.7,1.2-1.2c0.2-0.5,0.3-1.6,0.3-3.2V9.1c0-2.4-0.1-3.9-0.3-4.6
			c-0.2-0.7-0.7-1.4-1.5-2c-0.5-0.4-0.8-0.8-0.8-1.1c0-0.2,0.1-0.4,0.2-0.5c0.1-0.2,0.3-0.2,0.4-0.2c0.1,0,0.4,0.1,0.8,0.2
			c1.2,0.5,2.4,0.8,3.4,0.8c1.1,0,2.4-0.3,3.9-0.9c0.2-0.1,0.4-0.1,0.5-0.1c0.2,0,0.4,0.1,0.5,0.3c0.1,0.2,0.2,0.3,0.2,0.6
			c0,0.2-0.1,0.4-0.2,0.5c-0.1,0.1-0.4,0.3-0.9,0.6c-0.7,0.5-1.2,1.1-1.4,1.7c-0.2,0.7-0.3,2.2-0.3,4.5v9.6c0,1.5,0.1,2.6,0.4,3.3
			c0.3,0.7,0.7,1.2,1.3,1.6c0.6,0.4,1.2,0.6,2,0.6c1.1,0,2.1-0.5,2.8-1.4c0.7-1,1.1-2.1,1.1-3.4c0-0.9-0.2-1.9-0.6-2.9
			c-0.2-0.4-0.3-0.8-0.3-1c0-0.3,0.1-0.5,0.2-0.6c0.2-0.2,0.4-0.2,0.6-0.2c0.6,0,1.2,0.5,1.8,1.4c0.8,1.2,1.2,2.7,1.2,4.5
			c0,0.3,0,0.9-0.1,1.8c0,0.2,0,0.4,0,0.5c0,0.6,0.1,1.2,0.2,1.6c0.1,0.4,0.5,1,0.9,1.8c0.1,0.2,0.2,0.4,0.2,0.6
			c0,0.3-0.1,0.6-0.3,0.8c-0.2,0.2-0.4,0.3-0.7,0.3c-0.1,0-0.3,0-0.6-0.1C108.8,27.6,108.3,27.5,107.5,27.4L107.5,27.4z M140.5,15.3
			l-5.4-10.1c-0.6-1.1-1.3-2-2.2-2.6c-0.4-0.3-0.7-0.6-0.9-0.7c-0.1-0.2-0.2-0.4-0.2-0.6c0-0.2,0.1-0.4,0.2-0.5
			c0.1-0.1,0.3-0.2,0.5-0.2c0.2,0,0.5,0.2,1.1,0.5c0.9,0.5,1.9,0.7,3,0.7c1.1,0,2.1-0.3,3.1-0.7c0.6-0.3,0.9-0.4,1.1-0.4
			c0.2,0,0.3,0.1,0.5,0.2c0.1,0.1,0.2,0.3,0.2,0.6c0,0.2,0,0.4-0.1,0.5c-0.1,0.1-0.3,0.4-0.8,0.7c-0.3,0.3-0.4,0.6-0.4,1
			c0,0.5,0.1,0.9,0.3,1.3l4,7.5c0.4-0.7,0.7-1.3,0.9-1.6c0.2-0.3,0.6-0.8,1.2-1.5c0.7-0.8,1.2-1.5,1.5-1.9c0.2-0.4,0.3-0.9,0.3-1.3
			c0-0.4-0.1-0.8-0.3-1.1c-0.2-0.3-0.5-0.4-0.9-0.4c-0.6,0-1,0.4-1.4,1.3c-0.2,0.4-0.4,0.6-0.6,0.6c-0.3,0-0.6-0.3-0.9-0.8
			c-0.3-0.5-0.4-1.1-0.4-1.7c0-1.1,0.3-2,1-2.8c0.8-0.9,1.8-1.4,3-1.4c1.3,0,2.3,0.4,3.1,1.4c0.8,0.9,1.2,2,1.2,3.4
			c0,1.2-0.3,2.2-0.9,3.2c-0.3,0.6-1.1,1.4-2.3,2.6c-1.6,1.6-2.6,3-3.1,4.1c-0.5,1.1-0.7,2.7-0.7,4.6v2.1c0,1.7,0.1,2.7,0.3,3.2
			c0.2,0.5,0.7,1,1.5,1.4c0.5,0.2,0.7,0.5,0.7,0.8c0,0.5-0.3,0.8-1,0.8H139c-0.6,0-1-0.3-1-0.8c0-0.2,0-0.4,0.1-0.5
			c0.1-0.1,0.4-0.3,0.8-0.5c0.7-0.3,1-0.7,1.2-1.2c0.2-0.5,0.3-1.6,0.3-3.2V15.3z M15.7,14.4c0,0-0.1,0.1-0.2,0.1h0
			c-0.1,0-0.2,0-0.4,0c-0.1,0-0.3-0.1-0.4-0.1c-0.5-0.2-1.2-0.5-2-1.1c-0.6-0.5-1-1.3-1-2.1c0-0.1,0-0.2,0-0.3l0,0
			c0-0.1,0.1-0.2,0.2-0.2c0.1,0,0.1,0,0.2,0l0.1,0c0,0,0,0,0,0c0.1,0.1,1.3,1,1.7,1.4c0.5,0.5,1.2,1.3,1.6,1.8
			c0.1,0,0.1,0.1,0.1,0.2v0C15.8,14.2,15.8,14.3,15.7,14.4z M16.6,14.4c-0.6-1.7-2.7-3.5-4.1-4.3c-0.1,0-0.1,0-0.2-0.1l0,0
			c-0.1-0.1-0.1-0.1-0.1-0.3c0-0.1,0-0.1,0-0.2v0c0,0,0.1-0.1,0.1-0.2C12.7,9,13,8.7,13.5,8.6c0.5-0.2,1,0.1,1,0.3
			c0.1,0.4,0,0.9-0.3,1.3c-0.1,0-0.1,0.1-0.1,0.2c0,0.1,0.1,0.3,0.3,0.3c0.1,0,0.2-0.1,0.2-0.1C15,10,15.2,9.4,15,8.7
			c-0.2-0.6-1-0.8-1.7-0.6c-0.4,0.2-0.8,0.4-1.1,0.8c0,0-0.2,0.3-0.3,0.4l0,0c-0.1,0.1-0.2,0.2-0.3,0.2h-0.1c-0.1,0-0.2,0-0.3-0.1
			l-0.7-0.3v0c-0.1,0-0.2-0.2-0.2-0.3c0-0.1,0-0.1,0.1-0.2v0c0,0,0,0,0,0c0.7-0.6,1.6-1.7,1.2-3C11.2,4.6,10.3,4,9.7,3.7
			c-0.2-0.1-0.4-0.1-0.4,0c-0.1,0.1-0.1,0.2,0,0.5c0,0.1,0,0.1,0,0.1c0,0.1,0,0.2,0,0.3v0c0,0.1-0.1,0.3-0.3,0.3
			C8.8,5,8.6,5,8.4,4.7C8.2,4.5,7.6,4,7.4,3.8c-0.3-0.1-0.8-0.3-1,0.1c-0.2,0.4,0,0.7,0.3,0.9C6.9,5,7.6,5.1,7.9,5.2h0
			c0.1,0,0.1,0,0.2,0.1c0.1,0.1,0.1,0.1,0.2,0.2c0,0.1,0,0.1,0,0.2c0,0.1-0.1,0.2-0.2,0.3h0C7.9,6,7.7,6.1,7.7,6.2
			c0,0.1,0,0.1,0.1,0.1v0c0,0,0.1,0.1,0.2,0.1C8.4,6.7,8.8,7,9,7.6c0.2,0.4,0.1,1-0.3,1.1C8.4,8.8,7.9,8.6,7.4,8.1
			C6.9,7.8,6.5,7.4,6.1,6.9c-0.4-0.5-0.8-1-1.5-1.1l0,0c-0.2,0-0.5-0.1-0.7-0.1C3.4,5.7,3,5.7,2.6,5.9h0C2.4,5.9,2.3,6,2.3,6.1
			c-0.1,0.2,0,0.5,0.2,0.6C2.5,6.8,2.6,7,2.7,7.2v0c0,0.1,0,0.2,0,0.3C2.6,7.6,2.4,7.7,2.3,7.7H2.2c-0.5,0-1,0.2-1.4,0.4
			C0.5,8.2,0.3,8.4,0.3,8.4h0C0,8.7-0.1,9.1,0.1,9.3c0.1,0.1,0.3,0.2,0.5,0.2c0,0,0.1,0,0.2,0C1,9.4,1.2,9.2,1.4,9.1
			c0,0,0.1,0,0.2-0.1c0,0,0.1,0,0.2-0.1c0.2,0,0.4,0.2,0.5,0.4v0c0,0.1,0,0.1,0,0.2C2,9.9,1.9,10.1,2,10.4c0.1,0.4,0.8,0.7,1.4,0.5
			c0.6-0.2,1-0.5,1.5-0.9c0.3-0.3,1.3-0.6,1.8-0.7c0.8-0.1,1.5,0,1.6,0.4c0.1,0.4,0,0.7-0.4,1.1c-0.4,0.4-1,0.8-1.6,0.9
			c-0.1,0.1-0.2,0.1-0.2,0.1l0,0C6,11.8,6,11.9,6,12c0,0.1,0,0.2,0.1,0.2c0,0,0,0,0.1,0c0.1,0,0.1,0.1,0.2,0.2l0,0
			c0,0,0.1,0.1,0.1,0.2c0,0.1,0,0.2-0.1,0.3h0c0,0-0.1,0-0.1,0.1c-1.1,0.4-1.4,0.5-1.4,0.7c0,0.6,1.4,0.9,2.1,0.6
			c0.9-0.5,1.3-0.6,1.3-0.6c0.1,0.1,0.2,0.3,0.2,0.7c0,0.4,0,0.5,0.1,0.6c0,0,0.1,0,0.2-0.1c0,0,0.4-0.2,0.8-0.7
			c0.4-0.4,0.6-1,0.6-1.6c0-0.7-0.4-1.8-0.7-2.4C9.4,9.8,9.3,9.7,9.4,9.5c0.1-0.1,0.2-0.2,0.5,0l1,0.5c0.2,0.1,0.4,0.3,0.4,0.5
			c0,0.1,0,0.1,0,0.2l0,0c-0.2,0.8-0.1,1.6,0.5,2.4c0.7,1.2,2.1,2,3.2,2.4l0,0c0.5,0.2,0.9,0.6,0.9,1.1c0,0.1,0,0.2,0,0.3l0,0
			c0,0.2-0.1,0.5-0.2,0.7c-0.4,0.7-0.7,0.7-0.7,0.7c-0.2,0-0.3-0.1-0.3-0.2c0,0,0,0,0-0.1v0c0-0.1,0-0.3,0-0.4
			c0-0.2-0.1-0.3-0.1-0.5c0,0,0,0,0-0.1c0-0.1-0.1-0.2-0.2-0.3c-0.3-0.4-0.7-0.6-1.3-0.6c-0.5,0-0.9,0.3-1.1,0.7c0,0,0,0,0,0
			c0,0,0,0,0,0.1c-0.2,0.3-0.3,0.8-0.1,1.3c0.2,1,1.2,1.7,2.5,1.4C15.7,19.3,17.5,16.9,16.6,14.4L16.6,14.4z M154.9,14.1L154.9,14.1
			c0-0.1,0-0.1,0.1-0.2c0.4-0.5,1.1-1.3,1.6-1.8c0.4-0.4,1.6-1.3,1.7-1.4c0,0,0,0,0,0l0.1,0c0,0,0.1,0,0.2,0c0.1,0,0.2,0,0.2,0.2
			l0,0c0,0.1,0,0.2,0,0.3c0,0.8-0.4,1.6-0.9,2.1c-0.8,0.7-1.5,0.9-2,1.1c0,0-0.3,0.1-0.4,0.1c-0.1,0-0.2,0-0.4,0h0
			c-0.1,0-0.1,0-0.2-0.1C154.8,14.3,154.8,14.2,154.9,14.1z M156.4,19.6c1.2,0.3,2.2-0.3,2.5-1.4c0.1-0.5,0.1-0.9-0.1-1.3
			c0,0,0-0.1,0-0.1c0,0,0,0,0,0c-0.3-0.4-0.7-0.6-1.2-0.7c-0.5,0-0.9,0.2-1.2,0.6c-0.1,0.1-0.1,0.2-0.2,0.3c0,0,0,0.1,0,0.1
			c0,0.1-0.1,0.3-0.1,0.5c0,0.1,0,0.3,0.1,0.4v0c0,0,0,0,0,0.1c0,0.2-0.1,0.3-0.3,0.2c0,0-0.3,0.1-0.7-0.7c-0.1-0.2-0.2-0.4-0.2-0.7
			v0c0-0.1,0-0.2,0-0.3c0-0.5,0.4-1,0.9-1.1l0,0c1.1-0.4,2.4-1.2,3.2-2.4c0.5-0.8,0.6-1.7,0.4-2.4l0,0c0-0.1,0-0.1,0-0.2
			c0-0.2,0.1-0.4,0.4-0.5l1-0.5c0.3-0.1,0.4,0,0.5,0c0.1,0.2,0.1,0.3-0.1,0.6c-0.3,0.6-0.7,1.7-0.7,2.4c0.1,0.6,0.2,1.1,0.6,1.6
			c0.5,0.5,0.8,0.7,0.8,0.7c0.1,0.1,0.2,0.1,0.3,0.1c0.1-0.1,0.1-0.2,0.1-0.6c0-0.4,0-0.6,0.2-0.7c0.1-0.1,0.4,0,1.3,0.6
			c0.7,0.3,2.1,0,2.1-0.6c0-0.2-0.2-0.3-1.4-0.7l-0.1-0.1c-0.1,0-0.2-0.1-0.1-0.3c0-0.1,0-0.1,0.1-0.2v0c0.1-0.1,0.1-0.1,0.2-0.2
			c0,0,0,0,0.1,0h0c0.1-0.1,0.1-0.2,0.1-0.2c0-0.1-0.1-0.1-0.2-0.2l0,0c-0.1,0-0.1,0-0.3-0.1c-0.5-0.1-1.2-0.5-1.6-0.9
			c-0.4-0.4-0.5-0.7-0.4-1.1c0.1-0.4,0.8-0.5,1.6-0.4c0.6,0.1,1.5,0.4,1.8,0.7c0.6,0.4,0.9,0.7,1.5,0.9c0.6,0.2,1.2-0.1,1.4-0.5
			c0.1-0.3,0-0.5-0.1-0.8c0-0.1,0-0.1,0-0.2v0c0-0.2,0.2-0.4,0.4-0.4c0.1,0,0.1,0,0.2,0.1c0,0,0.1,0,0.1,0.1
			c0.2,0.1,0.4,0.2,0.6,0.3c0.1,0,0.2,0,0.2,0c0.2,0,0.3,0,0.5-0.2c0.2-0.2,0.1-0.6-0.2-0.9h0c0,0-0.2-0.2-0.4-0.3
			c-0.4-0.2-0.9-0.4-1.4-0.4h-0.1c-0.2,0-0.3-0.1-0.4-0.3c0-0.1,0-0.2,0-0.3v0c0-0.2,0.1-0.3,0.3-0.4c0.2-0.2,0.3-0.4,0.2-0.6
			c-0.1-0.1-0.2-0.2-0.3-0.3h0c-0.4-0.1-0.8-0.2-1.2-0.2c-0.2,0-0.5,0-0.7,0.1l0,0c-0.7,0.1-1.1,0.6-1.5,1.1
			c-0.4,0.5-0.8,0.9-1.2,1.2c-0.6,0.5-1.1,0.7-1.4,0.6c-0.4-0.1-0.5-0.7-0.3-1.1c0.2-0.6,0.7-0.9,1.1-1.1c0.1-0.1,0.1-0.1,0.2-0.1
			l0,0c0,0,0,0,0-0.1c0-0.1-0.2-0.2-0.3-0.3h0c-0.2,0-0.2-0.1-0.2-0.3c0-0.1,0-0.1,0.1-0.2c0-0.1,0.1-0.1,0.2-0.2c0,0,0.1,0,0.2-0.1
			h0c0.3-0.1,1-0.2,1.2-0.4c0.3-0.2,0.5-0.6,0.3-0.9c-0.2-0.4-0.7-0.2-1-0.1c-0.2,0.1-0.7,0.6-1,0.9C162,5,161.8,5,161.7,4.9
			c-0.1,0-0.2-0.2-0.3-0.3v0c0-0.1,0-0.2,0-0.3V4.2h0c0-0.3,0-0.4,0-0.5c-0.1-0.1-0.2-0.1-0.4,0c-0.7,0.2-1.6,0.9-1.9,1.8
			c-0.5,1.2,0.5,2.4,1.2,3c0,0,0,0,0,0l0,0c0,0.1,0.1,0.1,0.1,0.2c0,0.1-0.1,0.2-0.2,0.3v0l-0.6,0.3c-0.1,0-0.2,0.1-0.3,0.1h-0.1
			c-0.1,0-0.2-0.1-0.3-0.2l0,0c-0.1-0.2-0.3-0.4-0.3-0.4c-0.3-0.3-0.7-0.6-1.1-0.8c-0.7-0.2-1.5,0.1-1.7,0.6c-0.2,0.7,0,1.3,0.4,1.8
			c0.1,0.1,0.1,0.1,0.2,0.1c0.1,0,0.3-0.1,0.3-0.3c0-0.1,0-0.2,0-0.2c-0.3-0.4-0.5-0.8-0.3-1.3c0.1-0.2,0.5-0.5,1-0.3
			c0.4,0.1,0.8,0.4,1.1,0.7c0.1,0.1,0.1,0.1,0.1,0.2v0c0,0,0,0.1,0,0.2c0,0.1-0.1,0.2-0.1,0.3l0,0c0,0-0.1,0.1-0.1,0.1
			c-1.4,0.8-3.5,2.6-4.1,4.3C153,16.9,154.9,19.3,156.4,19.6z"/>
	</g>
</g>
</svg>
