<svg width="171" height="37" viewBox="0 0 171 37" fill="none" xmlns="http://www.w3.org/2000/svg">
    <g clip-path="url(#5ute9vfwja)" fill="#00243D">
        <path d="M43.788 33.979h1.34c.198 0 .318-.013.318-.071 0-.1-.04-.207-.12-.375l-.782-1.771c-.058-.055-.08-.071-.087-.071-.039 0-.081.058-.1.117l-.763 1.725c-.08.168-.113.284-.113.375 0 .058.113.071.307.071zm1.645.539h-1.92c-.261 0-.445.23-.62.695-.107.381-.187.653-.187.769 0 .194.09.375.28.478.082.042.25.088.495.15.184.064.281.109.281.196 0 .065-.055.113-.168.133.062-.007-.058-.02-.358-.02-.081 0-.24 0-.44-.013-.204-.019-.362-.019-.478-.019-.094 0-.22 0-.423.032-.14.01-.28.017-.42.02-.197 0-.305-.033-.305-.091 0-.071.108-.161.305-.258a.928.928 0 0 0 .449-.479l2.656-5.942c.093-.216.168-.32.248-.32.049 0 .13.104.207.308l2.646 6c.1.204.223.345.356.39.035.023.158.062.355.094.088.02.155.052.155.165a.133.133 0 0 1-.1.126c-.026 0-.106.006-.271.006-.09 0-.269-.006-.52-.019-.256-.032-.505-.032-.734-.032-.155 0-.346 0-.598.032-.164.01-.33.017-.494.02-.19 0-.284-.033-.284-.11 0-.084.1-.169.339-.297.226-.098.343-.269.343-.482 0-.158-.055-.378-.165-.666-.081-.164-.152-.358-.233-.533-.1-.206-.24-.333-.398-.333zM52.803 34.276v1.816c0 .188.035.317.167.41.043.023.133.068.288.133.12.026.158.058.158.155s-.038.149-.138.149c-.049 0-.14-.007-.324-.02-.187-.032-.336-.032-.54-.032-.203 0-.4 0-.584.032a7.85 7.85 0 0 1-.29.02c-.12 0-.169-.033-.169-.123 0-.046.049-.13.172-.207.142-.084.19-.233.19-.44v-1.757c0-.423-.048-.737-.207-.911-.106-.136-.307-.204-.55-.204-.245 0-.448.078-.574.236a.518.518 0 0 0-.136.355v2.223c0 .188.042.298.149.391.022.023.139.046.323.133.12.039.161.084.161.181 0 .09-.106.123-.339.123-.106 0-.252-.007-.459-.02-.216-.032-.371-.032-.449-.032-.093 0-.203 0-.358.032-.11.01-.22.017-.33.02-.106 0-.162-.007-.168-.007-.045-.013-.065-.061-.065-.126 0-.087.078-.132.233-.197.152-.061.236-.175.236-.336v-2.507c0-.169-.104-.295-.31-.33-.21-.026-.31-.071-.31-.162 0-.077.054-.106.125-.136.046-.028.162-.045.382-.11.33-.09.585-.164.792-.264.164-.126.261-.161.261-.161.074 0 .126.058.126.2v.494c.382-.391.795-.624 1.235-.624.468 0 .836.24 1.17.692.325-.452.768-.692 1.31-.692.534 0 .89.169 1.119.505.158.258.24.71.24 1.26v1.673c0 .246.09.356.3.437.197.093.31.145.31.229 0 .11-.113.162-.31.162-.052 0-.172-.007-.278-.02-.15-.032-.236-.032-.297-.032-.133 0-.32 0-.55.032-.133.009-.267.015-.4.02-.14 0-.214-.052-.214-.133 0-.061.068-.132.181-.216.142-.065.207-.181.207-.26v-1.776c0-.404-.03-.704-.1-.88-.107-.27-.346-.425-.682-.425-.462 0-.704.348-.704 1.027zM57.239 34.191h1.412c.09 0 .158 0 .184-.025.036-.046.049-.12.049-.233a1 1 0 0 0-.22-.623.84.84 0 0 0-.669-.34c-.265 0-.472.123-.62.35-.117.18-.19.42-.19.678 0 .122.028.194.054.194zm2.553.343h-2.388c-.094 0-.187 0-.19.026-.014.016-.03.084-.03.223 0 .436.152.794.42 1.14.265.31.61.466 1.028.466.21 0 .471-.09.743-.269.29-.17.417-.254.443-.254.083 0 .103.032.103.11 0 .16-.165.38-.524.594-.423.29-.84.43-1.286.43-.532 0-.96-.152-1.321-.475-.4-.356-.595-.853-.595-1.474 0-.64.165-1.157.482-1.628.34-.485.846-.75 1.425-.75.575 0 1.047.233 1.392.637.288.326.427.669.427 1.02 0 .133-.02.204-.13.204zM61.947 34.56v1.318c0 .259.058.479.207.556.1.068.23.126.449.175.135.051.216.083.216.168 0 .11-.029.161-.151.161-.052 0-.227-.006-.514-.02-.278-.031-.482-.031-.582-.031-.175 0-.365 0-.579.032-.136.01-.273.016-.41.02-.106 0-.17-.02-.17-.078 0-.091.044-.175.122-.188.126-.064.197-.126.239-.148.062-.1.11-.252.11-.46v-2.3c0-.168-.097-.294-.313-.33-.217-.025-.314-.07-.314-.161 0-.077.035-.107.097-.136.058-.029.18-.045.388-.11.333-.09.607-.164.817-.264.168-.126.252-.162.262-.162.074 0 .126.058.126.2v.77c.468-.602.827-.899.998-.899.11 0 .285.09.472.265.207.162.291.259.291.372 0 .187-.058.352-.181.54-.116.184-.223.3-.317.3-.035 0-.135-.081-.265-.21a.69.69 0 0 0-.504-.2c-.342 0-.494.27-.494.82zM65.682 31.093c0 .094-.106.23-.268.437-.2.219-.326.33-.384.33-.072 0-.207-.111-.388-.33-.171-.207-.259-.343-.259-.437 0-.07.088-.223.259-.45.184-.206.317-.329.388-.329.058 0 .184.123.384.33.162.226.268.378.268.449zm-1.192 5.18v-2.508c0-.168-.107-.294-.326-.33-.184-.025-.31-.07-.31-.138 0-.1.051-.13.126-.159.025-.015.161-.045.384-.103.33-.09.594-.155.785-.271.175-.126.265-.161.265-.161.087 0 .133.07.133.2v3.308c0 .187.058.314.19.391 0 .023.13.045.333.132.1.04.187.084.187.182 0 .09-.164.122-.407.122a7.76 7.76 0 0 1-.475-.019c-.216-.032-.378-.032-.462-.032-.087 0-.206 0-.371.032a4.21 4.21 0 0 1-.359.02c-.116 0-.188-.007-.188-.007-.048-.013-.08-.061-.08-.126 0-.087.09-.133.278-.197.203-.062.297-.175.297-.336zM66.445 35.051c0-.672.223-1.234.675-1.677a2.21 2.21 0 0 1 1.651-.701c.249 0 .5.064.753.168.31.13.478.337.478.582 0 .077-.103.2-.287.359-.217.158-.35.235-.437.235-.055 0-.09-.038-.113-.129-.084-.281-.168-.478-.28-.591-.127-.152-.308-.232-.556-.232-.605 0-.912.435-.912 1.314 0 .517.133.97.372 1.357.287.433.643.653 1.073.653.22 0 .465-.09.752-.268.285-.172.43-.255.475-.255.059 0 .078.032.078.11 0 .161-.184.38-.54.594-.404.29-.84.43-1.298.43-.54 0-1.002-.184-1.351-.566a1.963 1.963 0 0 1-.533-1.383zM72.849 36.092v-1.241c0-.039-.042-.068-.078-.068-.236 0-.465.068-.701.243-.3.207-.446.459-.446.74 0 .449.162.659.514.659.152 0 .297-.036.43-.068.184-.084.28-.155.28-.265zm1.06-1.971v1.703c0 .268.003.423.029.507.02.058.1.094.22.094.051 0 .096-.016.154-.036.09-.013.133-.013.152-.013.058 0 .113.013.113.084 0 .088-.132.214-.345.346-.233.126-.43.194-.614.194-.333 0-.537-.194-.627-.61-.488.416-1.011.61-1.512.61-.281 0-.51-.08-.689-.281a.826.826 0 0 1-.255-.627c0-.526.255-.924.78-1.182.177-.098.687-.265 1.534-.472 0-.472-.049-.831-.126-1.028-.126-.265-.362-.404-.72-.404-.204 0-.346.059-.379.162-.048.07-.061.207-.061.394 0 .297-.233.456-.701.456-.168 0-.25-.065-.25-.21 0-.385.224-.67.64-.87a2.407 2.407 0 0 1 1.141-.265c1.005 0 1.515.495 1.515 1.448zM75.262 36.005v-2.24c0-.168-.116-.294-.316-.33-.223-.025-.32-.07-.32-.16 0-.078.038-.107.11-.136.035-.03.19-.046.375-.11.326-.091.594-.165.82-.265a.836.836 0 0 1 .265-.162c.068 0 .11.059.11.2v.563h.02c.274-.452.717-.692 1.318-.692.497 0 .878.207 1.153.566.22.333.343.75.343 1.28v1.586c0 .168.052.304.158.42.036.023.14.084.265.136.123.026.174.084.174.145 0 .081-.064.133-.226.133-.103 0-.261-.007-.462-.02-.171-.032-.316-.032-.362-.032-.11 0-.252 0-.407.032-.197.013-.29.02-.32.02h-.248c-.055-.007-.081-.052-.081-.123 0-.039.08-.13.232-.246.156-.11.22-.213.22-.368v-1.684c0-.794-.317-1.208-.96-1.208-.543 0-.817.313-.817.94v1.842c0 .155.071.284.2.375.052.035.168.08.378.168.136.039.185.084.185.171 0 .081-.088.133-.301.133a14.295 14.295 0 0 0-.953-.052c-.11 0-.291 0-.5.032-.155.01-.309.017-.463.02-.094 0-.13-.033-.13-.091 0-.078.05-.155.162-.174.104-.065.188-.126.227-.149.1-.136.151-.291.151-.52zM87.386 30.644v1.626c0 .125-.09.197-.236.197-.023 0-.1-.197-.261-.57a2.44 2.44 0 0 0-.715-1.001c-.468-.375-1.063-.562-1.825-.562-.576 0-1.05.2-1.438.601-.514.54-.77 1.344-.77 2.475 0 .782.195 1.44.534 2.068.433.691 1.008 1.047 1.735 1.047.782 0 1.29-.165 1.554-.475.155-.204.24-.52.24-.921 0-.446-.104-.75-.31-.911-.107-.103-.298-.162-.547-.184-.203-.017-.31-.055-.31-.126 0-.126.052-.2.19-.207h.288c.146 0 .378 0 .701.006.294.017.514.032.673.032.129 0 .31-.015.542-.032.227-.006.4-.006.517-.006.074 0 .1.038.1.116 0 .116-.058.18-.174.217a.679.679 0 0 0-.323.184c-.1.139-.165.394-.165.753 0 .158 0 .339.02.507v.31c0 .152-.03.217-.085.262-1.176.624-2.2.95-3.098.95-1.238 0-2.146-.469-2.708-1.348a3.402 3.402 0 0 1-.604-1.928c0-.96.274-1.813.81-2.53.666-.86 1.548-1.284 2.676-1.284.4 0 .805.05 1.18.152.248.094.513.188.798.33.265.1.413.159.48.159.072 0 .133-.05.208-.152.078-.085.135-.13.18-.13.088 0 .143.13.143.375zM89.993 34.56v1.318c0 .259.068.479.214.556.097.068.226.126.442.175.145.051.226.083.226.168 0 .11-.052.161-.145.161-.071 0-.249-.006-.523-.02-.272-.031-.479-.031-.585-.031-.184 0-.369 0-.592.032-.133.01-.267.016-.4.02-.117 0-.178-.02-.178-.078 0-.091.052-.175.116-.188.13-.064.223-.126.249-.148.075-.1.126-.252.126-.46v-2.3c0-.168-.103-.294-.313-.33-.223-.025-.324-.07-.324-.161 0-.077.033-.107.101-.136.045-.029.187-.045.39-.11.33-.09.589-.164.799-.264.168-.126.252-.162.268-.162.078 0 .13.058.13.2v.77c.474-.602.814-.899 1.008-.899.126 0 .29.09.474.265.197.162.3.259.3.372 0 .187-.07.352-.2.54-.122.184-.229.3-.31.3-.032 0-.13-.081-.264-.21a.703.703 0 0 0-.508-.2c-.343 0-.5.27-.5.82zM93.731 31.093c0 .094-.096.23-.268.437-.174.219-.307.33-.384.33-.094 0-.21-.111-.382-.33-.184-.207-.265-.343-.265-.437 0-.07.081-.223.265-.45.172-.206.307-.329.382-.329.077 0 .21.123.384.33.172.226.269.378.269.449zm-1.192 5.18v-2.508c0-.168-.097-.294-.3-.33-.223-.025-.333-.07-.333-.138 0-.1.048-.13.123-.159.035-.015.168-.045.371-.103.333-.09.604-.155.805-.271.165-.126.258-.161.258-.161.107 0 .14.07.14.2v3.308c0 .187.044.314.16.391.036.023.146.045.334.132.119.04.197.084.197.182 0 .09-.14.122-.407.122-.097 0-.252-.006-.456-.019-.226-.032-.368-.032-.465-.032-.097 0-.207 0-.359.032-.123.01-.245.017-.368.02-.123 0-.198-.007-.198-.007-.054-.013-.087-.061-.087-.126 0-.087.11-.133.31-.197.178-.062.275-.175.275-.336zM95.037 36.018v-5.122c0-.161-.068-.277-.155-.335-.058-.026-.159-.046-.33-.091-.12-.007-.168-.045-.168-.136 0-.064.048-.116.126-.149.213-.061.436-.132.633-.167a6.06 6.06 0 0 0 .663-.298c.129-.071.184-.106.226-.106.061 0 .074.035.074.126 0 0-.013.11-.013.258v6.052c0 .184.046.34.178.452.046.046.168.107.333.172.139.038.184.096.184.142 0 .09-.058.123-.184.123-.081 0-.259-.007-.543-.02-.28-.032-.475-.032-.569-.032-.08 0-.22 0-.455.032-.143.01-.287.016-.43.02-.107 0-.162-.02-.162-.078 0-.09.04-.142.146-.174.132-.013.22-.078.297-.127.08-.093.149-.287.149-.542zM97.548 36.018v-5.122c0-.161-.039-.277-.162-.335-.029-.026-.132-.046-.317-.091-.106-.007-.168-.045-.168-.136 0-.064.046-.116.143-.149.21-.061.42-.132.62-.167.3-.117.517-.207.679-.298.103-.071.174-.106.22-.106.035 0 .058.035.058.126v.258c-.023.159-.023.31-.023.44v5.612c0 .184.068.34.19.452.062.046.162.107.34.172.113.038.184.096.184.142 0 .09-.08.123-.207.123-.061 0-.23-.007-.507-.02-.291-.032-.485-.032-.598-.032-.077 0-.223 0-.443.032-.138.01-.278.017-.417.02-.112 0-.17-.02-.17-.078 0-.09.058-.142.151-.174a.503.503 0 0 0 .288-.127c.1-.093.139-.287.139-.542zM104.701 36.425c.216 0 .453-.036.756-.1.285-.091.43-.188.43-.259 0-.048-.207-.242-.607-.565-.455-.344-.892-.71-1.309-1.1-.527-.48-.921-.978-1.154-1.395-.106-.194-.194-.287-.258-.287-.133 0-.284.083-.446.226-.191.22-.295.503-.291.794 0 .592.291 1.17.876 1.746.62.62 1.273.94 2.003.94zm-3.77-1.78c0-.54.135-.983.378-1.335.197-.252.416-.498.72-.682l.401-.232c0-.026-.033-.156-.107-.327a2.532 2.532 0 0 1-.091-.63c0-.452.165-.82.479-1.125.3-.277.707-.403 1.173-.403.236 0 .526.048.853.19.179.06.36.116.543.168.041 0 .099-.019.132-.084.084-.028.116-.045.184-.045.061 0 .097.045.097.174 0 .22.061.718.145 1.51.013.12-.045.19-.145.19-.08 0-.126-.103-.187-.252-.127-.426-.324-.775-.589-1.027-.287-.298-.642-.466-1.033-.466-.466 0-.708.252-.708.73 0 .415.291.99.853 1.684a13.895 13.895 0 0 0 1.628 1.71c.579.517.928.762 1.028.762.023 0 .09-.09.213-.284.107-.226.159-.47.159-.705 0-.359-.084-.604-.298-.756-.084-.061-.271-.136-.523-.171-.184-.042-.301-.094-.301-.18 0-.114.072-.146.194-.146.016 0 .133 0 .33.025.216 0 .442.007.666.007.213 0 .387-.007.542-.007.155-.026.253-.026.288-.026.1 0 .158.033.158.123 0 .065-.058.133-.19.162a.28.28 0 0 0-.185.258 9.661 9.661 0 0 1-.264 1.122c-.072.216-.136.423-.223.591l-.146.216c0 .182.204.372.572.598.333.22.601.316.753.316.136 0 .261-.025.346-.051a.968.968 0 0 1 .161-.02c.091 0 .12.02.12.13 0 .077-.11.203-.333.362a1.458 1.458 0 0 1-.872.281c-.45 0-1.005-.255-1.59-.766-.285.268-.659.44-1.144.594a5.194 5.194 0 0 1-1.26.172c-1.018 0-1.751-.307-2.291-.863-.433-.465-.636-.95-.636-1.492zM110.75 36.247l-.291-1.312a1.823 1.823 0 0 1-.048-.265c0-.11.054-.187.155-.187.1 0 .184.094.216.242.41 1.215 1.07 1.806 2.02 1.806.397 0 .73-.106.982-.316.239-.233.381-.543.381-.934 0-.371-.18-.636-.533-.879-.094-.045-.646-.327-1.677-.766-.481-.213-.808-.439-1.018-.64-.271-.277-.384-.668-.384-1.143 0-.566.158-1.022.517-1.39.371-.362.82-.553 1.396-.553.313 0 .626.05.946.19.311.13.511.198.559.198.049 0 .129-.035.249-.08a.61.61 0 0 1 .239-.071c.071 0 .104.022.123.084.01.083.022.194.022.27l.104 1.322c.006.23-.036.346-.236.346-.019 0-.091-.164-.242-.49-.162-.382-.346-.68-.566-.873-.336-.33-.723-.472-1.218-.472-.336 0-.594.103-.782.275-.2.17-.304.43-.304.772 0 .278.143.517.443.688.087.068.575.274 1.396.65.604.252 1.005.52 1.254.778.297.32.423.779.423 1.354 0 .634-.184 1.154-.588 1.538-.394.417-.937.61-1.57.61-.252 0-.543-.047-.866-.138-.252-.071-.534-.168-.811-.22-.104-.032-.178-.08-.233-.116a6.07 6.07 0 0 0-.058-.278zM117.691 36.092v-1.241c0-.039-.02-.068-.059-.068-.242 0-.491.068-.727.243-.287.207-.423.459-.423.74 0 .449.162.659.517.659.133 0 .288-.036.417-.068.184-.084.275-.155.275-.265zm1.043-1.971v1.703c0 .268.02.423.046.507.029.058.1.094.226.094.029 0 .09-.016.154-.036.091-.013.123-.013.146-.013.071 0 .107.013.107.084 0 .088-.107.214-.33.346-.236.126-.436.194-.607.194-.346 0-.563-.194-.624-.61-.507.416-1.008.61-1.535.61a.856.856 0 0 1-.681-.281.824.824 0 0 1-.252-.627c0-.526.252-.924.766-1.182.19-.098.694-.265 1.541-.472 0-.472-.049-.831-.139-1.028-.11-.265-.359-.404-.708-.404-.2 0-.327.059-.362.162-.051.07-.061.207-.061.394 0 .297-.242.456-.701.456-.181 0-.249-.065-.249-.21 0-.385.2-.67.63-.87a2.458 2.458 0 0 1 1.153-.265c1.009 0 1.48.495 1.48 1.448zM120.13 36.018v-5.122c0-.161-.074-.277-.174-.335-.036-.026-.133-.046-.314-.091-.113-.007-.171-.045-.171-.136 0-.064.032-.116.152-.149.2-.061.41-.132.624-.167.284-.117.494-.207.665-.298.11-.071.175-.106.217-.106.048 0 .054.035.054.126v.258c-.006.159-.006.31-.006.44v5.612c0 .184.046.34.171.452.058.046.184.107.343.172.142.038.2.096.2.142 0 .09-.074.123-.207.123-.071 0-.255-.007-.536-.02-.284-.032-.468-.032-.569-.032-.08 0-.233 0-.449.032-.141.01-.282.016-.423.02-.113 0-.159-.02-.159-.078 0-.09.046-.142.146-.174a.577.577 0 0 0 .291-.127c.071-.093.145-.287.145-.542zM124.379 36.092v-1.241c-.02-.039-.045-.068-.078-.068-.242 0-.487.068-.733.243-.284.207-.426.459-.426.74 0 .449.167.659.52.659.152 0 .287-.036.439-.068.168-.084.278-.155.278-.265zm1.04-1.971v1.703c0 .268.017.423.039.507.036.058.103.094.21.094a.457.457 0 0 0 .162-.036c.081-.013.142-.013.152-.013.077 0 .1.013.1.084 0 .088-.11.214-.333.346-.229.126-.436.194-.621.194-.319 0-.519-.194-.613-.61-.495.416-1.002.61-1.545.61a.834.834 0 0 1-.653-.281c-.171-.159-.255-.362-.255-.627 0-.526.255-.924.75-1.182.223-.098.714-.265 1.567-.472 0-.472-.045-.831-.139-1.028-.133-.265-.352-.404-.707-.404-.224 0-.353.059-.391.162-.042.07-.049.207-.049.394 0 .297-.252.456-.717.456-.165 0-.249-.065-.249-.21 0-.385.216-.67.643-.87a2.522 2.522 0 0 1 1.157-.265c1.001 0 1.492.495 1.492 1.448zM129.093 35.659v-1.984c-.265-.436-.623-.646-1.079-.646-.343 0-.604.168-.759.504-.13.274-.204.587-.204.985 0 .392.11.763.31 1.14.233.447.546.7.921.7.297 0 .511-.111.672-.247.09-.061.139-.22.139-.452zm0-2.721v-1.97c0-.198-.074-.337-.174-.407a2.539 2.539 0 0 0-.323-.068c-.107-.017-.169-.056-.169-.16 0-.07.123-.164.366-.232.417-.07.772-.22 1.095-.413a.272.272 0 0 1 .158-.075c.062 0 .081.081.081.269v5.932c0 .236.061.4.168.465.052.052.168.081.333.11.087 0 .149.045.149.136 0 .064-.133.149-.385.187-.436.094-.692.15-.769.175-.246.084-.372.113-.413.113-.055 0-.084-.048-.098-.139a5.777 5.777 0 0 1-.019-.504c-.423.433-.875.643-1.376.643-.504 0-.892-.194-1.157-.61-.243-.34-.359-.75-.359-1.293 0-.226.006-.427.062-.614.122-.504.336-.92.672-1.244.352-.359.782-.566 1.266-.566.408 0 .718.104.892.265zM32.84 7.91l-1.527 6.188c.791 1.101 1.499 2.53 2.045 4.255.38-.873.879-1.797 1.49-2.795L32.84 7.91zm2.74 10.443c-.325.517-.784 1.538-1.424 2.992-.2.54-.54.827-.976.827-.517 0-.846-.336-.982-.982-.381-1.616-.934-3.04-1.69-4.272a38.235 38.235 0 0 1-1.661 4.886c-.769 1.845-1.683 3.347-2.708 4.5-1.037 1.225-2.362 1.82-3.922 1.82-1.005 0-1.855-.34-2.54-1.047-.794-.779-1.166-1.79-1.166-2.998 0-1.047.297-1.965.885-2.715.604-.736 1.322-1.092 2.174-1.092.298 0 .485.033.589.097.116.1.206.294.303.569.233.678.64.992 1.232.992.636 0 1.273-.365 1.951-1.115.452-.51.863-1.196 1.224-2.01.356-.814.873-2.178 1.523-4.1-.433-.262-.854-.42-1.235-.42a1.14 1.14 0 0 0-1.166 1.173c0 .174.042.41.139.762.01.085.02.133.02.227 0 .439-.35.685-1.016.685-.61 0-1.069-.26-1.466-.757-.385-.49-.572-1.085-.572-1.835 0-1.115.39-2.016 1.211-2.746a3.232 3.232 0 0 1 2.223-.86c.912 0 1.807.323 2.679.983L30.246 7.9c.275-1.03.404-1.842.404-2.42 0-.523-.08-.973-.275-1.344-.19-.382-.526-.814-1.02-1.318-.456-.479-.68-.873-.68-1.17 0-.29.081-.52.282-.73a.945.945 0 0 1 .691-.297c.185 0 .508.096 1.002.278 1.39.516 2.494.79 3.315.79.83 0 1.874-.26 3.18-.771.494-.2.865-.297 1.127-.297.64 0 .944.297.944.923 0 .33-.226.705-.67 1.08-.823.75-1.233 1.622-1.233 2.546 0 .4.074.95.271 1.683l3.993 15.077c.298 1.03.595 1.803.945 2.336.32.517.775.937 1.366 1.273.368.226.575.375.692.484.093.123.135.31.135.537 0 .575-.459.879-1.393.879h-6.73c-.7 0-1.056-.246-1.056-.75 0-.316.216-.607.597-.86.585-.355.866-.807.866-1.35 0-.29-.074-.817-.245-1.518l-1.173-4.608zM54.696 0c1.08 0 2.504.404 4.327 1.137 1.073.479 1.845.692 2.326.692.188 0 .527-.052.992-.207.1 0 .2-.006.294-.006.23 0 .42.074.595.284.18.194.258.44.258.691 0 .395-.336.892-1.005 1.5-1.134 1.017-2.006 2.216-2.581 3.56-.3.656-.66.989-1.093.989-.397 0-.697-.29-.94-.892-.714-1.945-1.802-2.924-3.205-2.924-.727 0-1.286.249-1.777.747-.472.468-.701 1.085-.701 1.809 0 .775.3 1.383.917 1.835.617.433 1.997.992 4.068 1.687 1.933.656 3.338 1.357 4.262 2.078 2.03 1.602 3.057 3.793 3.057 6.556 0 2.494-.898 4.543-2.701 6.168-1.813 1.619-4.14 2.42-6.957 2.42-2.663 0-4.924-.64-6.821-1.949a6.652 6.652 0 0 1-2.049-2.262 6.213 6.213 0 0 1-.73-2.93c0-1.364.408-2.5 1.219-3.448.878-1.037 1.996-1.544 3.337-1.544 1.435 0 2.695.565 3.751 1.729.33.349.607.745.821 1.175.23.46.34.873.34 1.158 0 .22-.052.404-.184.574a.507.507 0 0 1-.42.24c-.159 0-.375-.117-.656-.391-.68-.585-1.284-.902-1.813-.902-.504 0-.937.194-1.254.569-.313.349-.488.84-.488 1.422 0 .833.33 1.576.973 2.174.934.905 2.113 1.354 3.528 1.354 1.483 0 2.734-.53 3.687-1.584a4.56 4.56 0 0 0 1.286-3.237c0-1.596-.695-2.843-2.1-3.716-.837-.478-2.22-1.034-4.14-1.641-1.328-.42-2.306-.782-2.904-1.092-.618-.33-1.173-.782-1.735-1.364-1.15-1.202-1.729-2.746-1.729-4.65 0-2.232.763-4.09 2.307-5.56C50.606.759 52.467 0 54.696 0zM74.665 15.79v5.47c0 1.68.093 2.747.28 3.245.194.485.692.924 1.5 1.325.465.232.672.475.672.827 0 .524-.349.782-1.031.782h-7.764c-.662 0-.995-.258-.995-.782 0-.217.074-.375.165-.488.112-.107.361-.281.791-.478.653-.323 1.066-.72 1.25-1.234.15-.527.256-1.594.256-3.203V9.068c0-2.378-.107-3.923-.291-4.624-.197-.708-.663-1.357-1.458-1.974-.506-.407-.778-.78-.778-1.112 0-.18.055-.362.197-.517a.561.561 0 0 1 .436-.22c.097 0 .381.068.78.22 1.272.51 2.429.776 3.476.776 1.186 0 2.372-.314 3.602-.937a1.06 1.06 0 0 1 .511-.143.79.79 0 0 1 .566.233c.139.149.213.349.213.569 0 .323-.281.71-.847 1.153-.678.53-1.118 1.115-1.27 1.8-.168.633-.261 2.236-.261 4.776v4.316l6.879-2.59V9.066c0-2.378-.081-3.923-.265-4.624-.197-.708-.679-1.357-1.467-1.974-.514-.407-.795-.78-.795-1.112 0-.18.068-.362.22-.517a.544.544 0 0 1 .449-.22c.126 0 .371.068.75.22 1.285.51 2.445.776 3.476.776 1.199 0 2.397-.314 3.619-.937.2-.107.372-.143.517-.143.23 0 .394.085.546.233a.815.815 0 0 1 .223.569c0 .323-.29.71-.846 1.153-.702.53-1.116 1.115-1.29 1.8-.145.633-.21 2.236-.239 4.776V21.26c0 1.68.087 2.747.278 3.244.207.485.685.924 1.502 1.325.437.232.66.475.66.827 0 .524-.34.782-.98.782h-7.8c-.665 0-1.001-.258-1.001-.782 0-.217.048-.375.178-.488.097-.107.381-.281.788-.478.656-.323 1.047-.72 1.225-1.234.17-.527.252-1.594.252-3.203V13.17l-6.88 2.62zM118.521 12.698c1.202-.019 1.955-.872 2.258-2.5.178-.685.288-1.125.423-1.316.139-.213.305-.323.566-.323.43 0 .643.508.666 1.51.022 1.414.106 2.53.3 3.33.188.837.617 2.136 1.335 3.93.119.287.191.533.191.736 0 .546-.24.821-.692.821-.259 0-.507-.197-.756-.565-.588-.925-1.024-1.529-1.305-1.846a3.791 3.791 0 0 0-1.018-.83c-.534-.316-1.183-.465-1.968-.465v3.29c0 1.686.213 2.94.669 3.767.649 1.18 1.845 1.751 3.589 1.751 2.437 0 4.017-1.354 4.657-4.117.129-.616.261-1.02.388-1.228.112-.2.303-.31.539-.31.245 0 .43.127.53.356.1.226.213.74.317 1.519.268 2.184.979 3.98 2.132 5.37.53.646.782 1.111.782 1.396 0 .22-.075.436-.213.594a.689.689 0 0 1-.537.252c-.1 0-.219-.026-.378-.084a6.755 6.755 0 0 0-1.981-.297h-16.84c-.659 0-.992-.259-.992-.782 0-.217.055-.375.168-.488.097-.107.368-.281.782-.479.701-.345 1.118-.778 1.28-1.298.138-.527.216-1.794.216-3.797V9.506c0-1.157-.097-1.984-.333-2.436-.204-.462-.656-.776-1.367-1.012-.4-.126-.578-.352-.578-.688 0-.769.824-1.796 2.533-3.121.902-.695 1.961-1.247 3.18-1.642A11.44 11.44 0 0 1 120.731 0c1.057 0 1.987.117 2.721.342.769.208 1.912.692 3.447 1.468.666.335 1.212.5 1.68.5.401 0 .798-.152 1.154-.417.213-.145.362-.203.456-.203.294 0 .526.29.749.882.223.598.336 1.267.336 1.958 0 1.57-.539 2.866-1.644 3.878-.899.865-1.972 1.305-3.193 1.305-1.027 0-1.871-.35-2.488-1.028a2.302 2.302 0 0 1-.678-1.647c0-.414.119-.618.397-.618.068 0 .181.04.352.094.12.032.24.068.391.068.323 0 .585-.123.769-.397.204-.253.314-.595.314-.996 0-.681-.307-1.254-.857-1.728-.568-.475-1.26-.708-2.097-.708-.82 0-1.538.246-2.158.75-.611.49-1.076 1.179-1.357 2.042-.33 1.056-.504 2.762-.504 5.137v2.016zM107.542 27.439H92.727c-.663 0-.976-.258-.976-.782 0-.216.03-.375.152-.488.094-.107.372-.282.785-.478.643-.323 1.063-.721 1.241-1.235.168-.526.255-1.593.255-3.202V9.067c0-2.379-.087-3.923-.275-4.624-.177-.708-.665-1.357-1.46-1.974-.517-.408-.775-.78-.775-1.112 0-.18.055-.362.187-.517.136-.152.281-.22.436-.22.136 0 .391.068.782.22 1.241.51 2.414.776 3.444.776 1.07 0 2.353-.314 3.92-.937.21-.107.378-.143.533-.143a.7.7 0 0 1 .546.259c.145.158.239.333.239.556a.749.749 0 0 1-.161.49c-.123.117-.398.324-.918.65-.737.488-1.19 1.083-1.354 1.742-.152.665-.252 2.178-.252 4.53v9.648c0 1.486.13 2.591.417 3.348a3.42 3.42 0 0 0 1.308 1.615c.585.426 1.238.614 2.001.614 1.147 0 2.071-.466 2.766-1.39.727-.988 1.079-2.129 1.079-3.424 0-.899-.214-1.868-.64-2.895-.171-.447-.278-.763-.278-.983 0-.258.065-.452.22-.614a.829.829 0 0 1 .601-.232c.555 0 1.189.465 1.809 1.412.779 1.22 1.193 2.736 1.193 4.546 0 .278-.017.853-.072 1.783-.005.182-.009.364-.01.547 0 .636.072 1.175.227 1.605.135.414.452 1.002.95 1.752a1.1 1.1 0 0 1 .19.623c0 .31-.087.582-.284.785a.918.918 0 0 1-.721.317c-.135 0-.323-.036-.571-.113-.411-.145-.97-.252-1.719-.268zM140.506 15.264l-5.383-10.088c-.575-1.118-1.329-1.984-2.169-2.617-.446-.304-.733-.562-.882-.73a.84.84 0 0 1-.2-.572c0-.184.055-.352.184-.498.149-.139.301-.223.498-.223.151 0 .504.152 1.089.46.905.458 1.906.694 3.024.694 1.082 0 2.106-.262 3.089-.737.565-.265.95-.417 1.115-.417.203 0 .345.084.5.233.098.148.198.349.198.569 0 .216-.042.387-.139.504-.071.116-.349.355-.805.717-.284.258-.433.592-.433 1.034 0 .452.11.872.333 1.283l4.046 7.538c.374-.737.675-1.27.894-1.57.227-.314.637-.798 1.241-1.49.717-.843 1.205-1.48 1.454-1.893.233-.424.349-.853.349-1.276 0-.443-.116-.789-.346-1.077-.229-.297-.52-.449-.869-.449-.559 0-1.024.45-1.367 1.35-.155.363-.371.573-.588.573-.329 0-.639-.262-.917-.779a3.716 3.716 0 0 1-.398-1.7c0-1.06.317-1.98 1.002-2.753.775-.9 1.767-1.35 3.024-1.35 1.251 0 2.281.45 3.083 1.35.811.899 1.182 2.017 1.182 3.38 0 1.163-.274 2.217-.856 3.18-.339.568-1.108 1.444-2.268 2.598-1.57 1.615-2.588 2.969-3.076 4.061-.498 1.115-.743 2.656-.743 4.627v2.065c0 1.677.122 2.727.284 3.218.213.497.698.95 1.483 1.35.459.233.698.476.698.828 0 .523-.346.782-.989.782h-7.825c-.643 0-.963-.259-.963-.782 0-.217.045-.375.148-.488.104-.107.378-.281.815-.479.659-.323 1.027-.72 1.218-1.234.161-.526.265-1.593.265-3.202v-5.99zM15.687 14.404a.372.372 0 0 1-.158.09h-.016c-.107 0-.207-.018-.356-.044a2.794 2.794 0 0 1-.423-.133c-.514-.203-1.209-.478-2.006-1.147-.618-.517-.963-1.344-.954-2.087 0-.136.007-.207.03-.291l.006-.016c.045-.107.129-.152.245-.152.055 0 .126 0 .162.039l.058.019s.013 0 .013.013c.133.08 1.308.982 1.728 1.383.51.49 1.2 1.305 1.6 1.832.052.049.071.106.097.152v.006c.052.11.052.25-.026.336zm.947 0c-.627-1.712-2.67-3.528-4.094-4.307a.288.288 0 0 1-.152-.087l-.013-.013c-.08-.064-.113-.149-.13-.275 0-.067.017-.132.043-.164v-.033c.016-.032.055-.09.1-.17a2.088 2.088 0 0 1 1.09-.747c.519-.2.952.077 1.03.313.145.417 0 .85-.324 1.264-.054.022-.07.103-.054.18 0 .143.126.259.274.259.104 0 .159-.065.223-.116.365-.53.614-1.118.356-1.803-.188-.55-1.018-.84-1.72-.621a2.907 2.907 0 0 0-1.143.757s-.204.251-.284.42l-.01.012c-.078.104-.181.194-.33.194h-.058a.584.584 0 0 1-.284-.09l-.666-.31V9.05a.308.308 0 0 1-.203-.274.244.244 0 0 1 .061-.188v-.02a.053.053 0 0 0 .032-.044c.692-.624 1.639-1.732 1.176-2.98-.336-.91-1.208-1.58-1.903-1.825-.184-.094-.355-.094-.44 0-.067.074-.087.152-.038.45.016.077.016.096.016.145.01.1-.016.184-.032.255v.02c-.049.141-.14.287-.278.322-.09.04-.252.04-.446-.18-.252-.253-.788-.767-1.002-.893-.258-.148-.765-.265-1.004.097-.21.362-.02.724.29.925.223.155.863.284 1.193.384h.022c.068.016.1.049.165.058a.88.88 0 0 1 .194.223c.026.065.049.1.049.194 0 .11-.059.213-.243.255h-.022c-.198.055-.343.146-.343.252 0 .068.039.081.065.094v.023c.045.029.097.077.174.132.385.181.86.546 1.076 1.102.152.423.11.96-.32 1.092-.294.107-.817-.11-1.37-.607-.455-.288-.808-.682-1.26-1.167-.381-.484-.782-.963-1.46-1.108L4.61 5.75c-.22-.032-.459-.067-.724-.074-.475 0-.902.055-1.273.19h-.02c-.187.065-.284.156-.335.253-.098.2-.01.462.158.613a.909.909 0 0 1 .274.433v.02c.01.103.01.194-.022.29a.493.493 0 0 1-.388.272h-.126c-.494 0-1.011.162-1.415.4-.204.078-.41.26-.41.26H.316c-.313.258-.403.658-.226.9.097.127.272.185.472.16 0 0 .11 0 .168-.02.29-.094.478-.22.633-.317a.988.988 0 0 1 .152-.065s.062-.045.162-.058c.248-.02.44.188.459.417v.01c0 .058 0 .09-.026.155-.12.343-.185.536-.078.814.13.382.785.669 1.364.472.636-.213.96-.462 1.531-.879.327-.275 1.27-.572 1.839-.66.795-.109 1.5.017 1.641.385.11.375.026.682-.413 1.122-.414.413-1.028.778-1.587.885-.097.065-.174.065-.239.065l-.016.01c-.113.022-.165.093-.18.157-.024.094.015.162.08.246a.27.27 0 0 0 .077.042.526.526 0 0 1 .197.171l.026.02c.049.042.055.097.055.165.02.106-.048.203-.13.252h-.002c-.042.022-.107.042-.136.061-1.124.4-1.354.478-1.376.691-.013.556 1.366.886 2.051.55.93-.537 1.26-.64 1.341-.572.143.068.23.252.2.685-.028.381-.038.507.098.572.032 0 .135 0 .248-.065 0 0 .359-.18.811-.681.42-.45.601-.983.64-1.561.007-.743-.362-1.81-.669-2.44-.123-.294-.171-.416-.074-.585.074-.087.22-.158.497-.045l.999.485c.204.116.355.255.355.491.02.065 0 .116-.019.18l-.023.04c-.184.75-.051 1.628.462 2.426.728 1.25 2.1 2.032 3.164 2.427l.039.006a1.275 1.275 0 0 1 .895 1.144c0 .107 0 .207-.013.33l-.02.019c-.032.24-.13.465-.22.666-.41.73-.672.672-.672.672-.151.022-.29-.078-.297-.24 0-.038 0-.048.007-.087v-.006c.029-.126.045-.252.045-.391a2.311 2.311 0 0 0-.1-.452c0-.01 0-.046-.023-.078a.838.838 0 0 0-.19-.284c-.301-.375-.74-.62-1.264-.595a1.485 1.485 0 0 0-1.127.653s0 .013-.014.026c-.013.02-.035.045-.045.074-.213.346-.268.801-.116 1.276.245 1.015 1.247 1.658 2.465 1.364 1.538-.359 3.35-2.75 2.44-5.209zM154.878 14.069v-.007c.029-.045.048-.103.077-.152.41-.526 1.111-1.34 1.609-1.832.423-.4 1.6-1.302 1.726-1.383 0-.013.013-.013.013-.013l.061-.019c.045-.039.097-.039.171-.039.097 0 .201.046.233.152l.016.016a.99.99 0 0 1 .032.291 2.867 2.867 0 0 1-.95 2.087c-.782.669-1.499.944-2.019 1.148 0 0-.259.1-.417.132a2.139 2.139 0 0 1-.352.045h-.01c-.077-.02-.129-.045-.161-.09-.088-.087-.088-.226-.029-.336zm1.499 5.544c1.231.294 2.226-.348 2.485-1.363.139-.476.083-.93-.117-1.277-.009-.029-.039-.054-.045-.074-.01-.013-.01-.026-.01-.026a1.498 1.498 0 0 0-1.16-.653c-.484-.025-.934.22-1.234.595-.079.085-.146.18-.197.284-.006.033-.016.068-.016.078a3.956 3.956 0 0 0-.123.452c0 .14.029.265.055.391v.007c0 .039.019.048.019.087-.019.161-.145.262-.303.239 0 0-.269.058-.663-.672-.113-.2-.19-.426-.249-.666v-.019c-.022-.123-.022-.223-.022-.33.032-.54.413-.988.911-1.143l.042-.007c1.066-.394 2.426-1.176 3.163-2.427.501-.797.64-1.677.44-2.426l-.02-.039c-.003-.064-.013-.116-.013-.18.01-.237.136-.376.356-.492l1.008-.485c.271-.113.417-.042.471.046.107.168.055.29-.054.585-.314.63-.676 1.696-.666 2.44.052.577.207 1.11.63 1.56.472.5.814.681.814.681.12.065.217.065.252.065.13-.065.13-.19.107-.572-.023-.433.045-.617.188-.685.09-.068.404.036 1.321.572.717.336 2.087.006 2.068-.55 0-.212-.239-.29-1.374-.69l-.126-.062c-.093-.048-.158-.145-.132-.252 0-.068.006-.123.055-.165v-.02a.86.86 0 0 1 .226-.17s.036-.023.062-.043h.016c.058-.084.11-.151.077-.245-.019-.065-.077-.136-.194-.158l-.009-.01c-.055 0-.139 0-.259-.065-.52-.106-1.156-.472-1.56-.885-.446-.44-.543-.746-.404-1.121.135-.369.843-.495 1.635-.385.572.087 1.502.385 1.835.66.572.416.895.665 1.531.878.576.197 1.235-.09 1.364-.471.103-.278.032-.472-.084-.815-.019-.064-.019-.097-.019-.155v-.01c.019-.229.206-.436.439-.416a.415.415 0 0 1 .181.058c.032.006.116.048.149.065.192.139.406.246.633.316.071.02.175.02.175.02a.514.514 0 0 0 .465-.159c.194-.242.09-.643-.233-.901h-.013s-.2-.181-.413-.259c-.388-.239-.918-.4-1.403-.4h-.129a.524.524 0 0 1-.388-.272.38.38 0 0 1-.013-.29v-.02a.892.892 0 0 1 .265-.433c.162-.152.265-.414.162-.614-.052-.097-.155-.187-.336-.252h-.026c-.362-.136-.801-.19-1.241-.19a5.79 5.79 0 0 0-.746.074l-.045.035c-.672.146-1.064.624-1.474 1.109-.43.484-.778.878-1.212 1.166-.581.498-1.101.714-1.392.607-.44-.132-.478-.668-.314-1.092.207-.556.692-.92 1.073-1.101.065-.056.13-.104.162-.133l.022-.023c.017-.013.049-.026.049-.093 0-.107-.152-.198-.336-.252h-.019c-.185-.042-.243-.146-.249-.256.006-.093.013-.129.052-.193.028-.072.109-.143.197-.223.041-.01.1-.042.164-.058h.01c.33-.1.985-.23 1.205-.385.307-.2.488-.562.281-.924-.246-.362-.743-.246-1.001-.097-.224.126-.747.64-.983.892-.206.22-.378.22-.465.18-.126-.035-.249-.18-.288-.322v-.02a.542.542 0 0 1-.029-.255v-.145h.02c.048-.298.022-.375-.049-.45-.081-.093-.232-.093-.426 0-.698.246-1.564.915-1.903 1.826-.462 1.247.471 2.356 1.166 2.98a.246.246 0 0 0 .029.044l.01.02a.39.39 0 0 1 .058.187c-.029.13-.078.233-.2.275v.016l-.646.31a.778.778 0 0 1-.291.09h-.081c-.139 0-.242-.09-.31-.193l-.023-.013c-.09-.168-.294-.42-.294-.42a2.674 2.674 0 0 0-1.131-.757c-.691-.22-1.519.072-1.732.62-.239.686-.029 1.274.372 1.804.055.052.133.116.229.116a.267.267 0 0 0 .269-.258c.012-.078 0-.159-.042-.181-.323-.414-.485-.847-.333-1.264.106-.235.504-.513 1.03-.313.417.123.824.381 1.083.746.055.081.077.14.094.172v.032c.029.032.042.097.042.165a.419.419 0 0 1-.126.274l-.01.013a.324.324 0 0 1-.139.088c-1.409.778-3.483 2.594-4.101 4.307-.921 2.459.905 4.85 2.421 5.208z"/>
    </g>
    <defs>
        <clipPath id="5ute9vfwja">
            <path fill="#fff" d="M0 0h170.595v37H0z"/>
        </clipPath>
    </defs>
</svg>
